<?xml version="1.0" encoding="UTF-8" standalone="no"?>
<!-- Created with Inkscape (http://www.inkscape.org/) -->

<svg
   width="210mm"
   height="297mm"
   viewBox="0 0 210 297"
   version="1.1"
   id="svg5"
   inkscape:version="1.2 (dc2aedaf03, 2022-05-15)"
   sodipodi:docname="stone_mask.svg"
   xmlns:inkscape="http://www.inkscape.org/namespaces/inkscape"
   xmlns:sodipodi="http://sodipodi.sourceforge.net/DTD/sodipodi-0.dtd"
   xmlns="http://www.w3.org/2000/svg"
   xmlns:svg="http://www.w3.org/2000/svg">
  <sodipodi:namedview
     id="namedview7"
     pagecolor="#ffffff"
     bordercolor="#000000"
     borderopacity="0.25"
     inkscape:showpageshadow="2"
     inkscape:pageopacity="0.0"
     inkscape:pagecheckerboard="0"
     inkscape:deskcolor="#d1d1d1"
     inkscape:document-units="mm"
     showgrid="false"
     inkscape:zoom="2.9540685"
     inkscape:cx="441.59437"
     inkscape:cy="462.75163"
     inkscape:window-width="1920"
     inkscape:window-height="1009"
     inkscape:window-x="-8"
     inkscape:window-y="-8"
     inkscape:window-maximized="1"
     inkscape:current-layer="layer1" />
  <defs
     id="defs2">
    <pattern
       id="EMFhbasepattern"
       patternUnits="userSpaceOnUse"
       width="6"
       height="6"
       x="0"
       y="0" />
  </defs>
  <g
     inkscape:label="Στρώση 1"
     inkscape:groupmode="layer"
     id="layer1">
    <path
       style="fill:#483737;stroke-width:0.264583"
       d="m 104.61279,117.77895 0.71652,-0.5374"
       id="path187" />
    <path
       style="fill:#483737;stroke-width:0.264583"
       d="m 105.95627,116.70416 0.89566,-0.71652"
       id="path189" />
    <path
       style="fill:#483737;stroke-width:0.264583"
       d="m 104.88148,117.59982 -0.98522,1.61218 m 0.2687,1.79132 0.2687,1.61218"
       id="path191" />
    <path
       style="fill:#483737;stroke-width:0.264583"
       d="m 103.80669,117.95808 13.614,-10.65832"
       id="path203" />
    <path
       style="fill:#fff1bd;stroke-width:0.264583;fill-opacity:0.12933753"
       d="m 104.43365,118.04765 c 0.29491,-0.084 0.33866,-0.51779 0.44783,-0.62696 0.0145,-0.0145 0.26327,-0.0787 0.2687,-0.0896 0.0267,-0.0534 -0.0189,-0.12249 0,-0.17913 0.0577,-0.17298 0.15217,-0.0313 0.2687,-0.0896 0.0267,-0.0134 -0.0134,-0.0629 0,-0.0896 0.06,-0.11996 0.21367,-0.12411 0.26869,-0.17913 0.0211,-0.0211 -0.0211,-0.0685 0,-0.0896 0.0448,-0.0448 0.13435,-0.0448 0.17914,-0.0896 0.0472,-0.0472 0.0424,-0.13192 0.0896,-0.17913 0.0422,-0.0422 0.13691,0.0422 0.17913,0 0.0448,-0.0448 0.0448,-0.13435 0.0896,-0.17913 0.0597,-0.0597 0.11944,0.0597 0.17913,0 0.0211,-0.0211 -0.0134,-0.0629 0,-0.0896 0.18638,-0.37275 -0.006,0.0957 0.17913,-0.0896 0.0472,-0.0472 0.0525,-0.12358 0.0896,-0.17913 0.0847,-0.12706 0.20016,-0.1106 0.26869,-0.17913 0.0211,-0.0211 -0.0211,-0.0685 0,-0.0896 0.0422,-0.0422 0.13692,0.0422 0.17914,0 0.0211,-0.0211 -0.0267,-0.0762 0,-0.0896 0.042,-0.021 0.71229,-0.1749 0.71652,-0.17914 0.0211,-0.0211 -0.0267,-0.0762 0,-0.0896 0.0801,-0.0401 0.20537,0.0633 0.2687,0 0.0211,-0.0211 -0.0211,-0.0685 0,-0.0896 0.0936,-0.0936 1.0678,-0.0826 1.07479,-0.0896 0.0211,-0.0211 -0.0267,-0.0762 0,-0.0896 0.0801,-0.04 0.18859,0.0401 0.26869,0 0.37276,-0.18637 -0.0957,0.006 0.0896,-0.17913 0.0422,-0.0422 0.12573,0.0267 0.17913,0 0.19804,-0.099 0.0278,-0.0556 0.0896,-0.17913 0.18637,-0.37275 -0.006,0.0958 0.17913,-0.0896 0.0597,-0.0597 -0.0597,-0.11943 0,-0.17913 0.0211,-0.0211 0.0685,0.0211 0.0896,0 0.0448,-0.0448 -0.0448,-0.22391 0,-0.2687 0.0211,-0.0211 0.0684,0.0211 0.0896,0 0.0422,-0.0422 -0.0267,-0.12572 0,-0.17913 0.0653,-0.13062 0.14328,-0.14328 0.17913,-0.17913 0.0422,-0.0422 -0.0189,-0.12248 0,-0.17913 0.0299,-0.0896 0.0228,-0.20194 0.0896,-0.2687 0.0211,-0.0211 0.0762,0.0267 0.0896,0 0.0267,-0.0534 -0.0189,-0.12248 0,-0.17913 0.0478,-0.14343 0.13133,-0.0357 0.17914,-0.17913 0.0283,-0.085 -0.0401,-0.18859 0,-0.2687 0.0944,-0.1887 0.0795,-0.42767 0.17913,-0.62696 0.0273,-0.0546 0.11995,-0.23911 0.17913,-0.26869 0.0267,-0.0134 0.0684,0.0211 0.0896,0 0.0668,-0.0668 0.0228,-0.20194 0.0896,-0.2687 0.005,-0.005 0.26384,-0.17428 0.2687,-0.17914 0.055,-0.055 0.0592,-0.20871 0.17913,-0.26869 0.0267,-0.0134 0.0684,0.0211 0.0896,0 0.10908,-0.10909 0.0419,-0.20011 0.17913,-0.2687 0.0738,-0.0369 0.1259,-0.0363 0.17913,-0.0896 0.0211,-0.0211 -0.0211,-0.0685 0,-0.0896 0.0633,-0.0633 0.19417,0.0497 0.2687,0 0.0555,-0.037 0.034,-0.1421 0.0896,-0.17913 0.0497,-0.0331 0.12249,0.0189 0.17913,0 0.0801,-0.0267 0.10361,-0.14137 0.17913,-0.17913 0.0267,-0.0134 0.0685,0.0211 0.0896,0 0.0211,-0.0211 -0.0211,-0.0685 0,-0.0896 0.0837,-0.0837 0.36417,-0.0955 0.44783,-0.17913 0.0211,-0.0211 -0.0211,-0.0685 0,-0.0896 0.0668,-0.0668 0.20194,-0.0228 0.2687,-0.0896 0.0448,-0.0448 0.0448,-0.13435 0.0896,-0.17913 0.0668,-0.0668 0.20194,-0.0228 0.2687,-0.0896 0.0211,-0.0211 -0.0211,-0.0684 0,-0.0896 0.0794,-0.0794 0.80274,0 0.98522,0 0.19272,0 1.13287,-0.14764 1.25392,-0.26869 0.0502,-0.0502 0.0515,-0.13658 0.17913,-0.17913 0.0916,-0.0305 0.47074,-0.0229 0.5374,-0.0896 0.11942,-0.11942 -0.19,-0.0859 0.0896,-0.17913 0.50754,0 0.0299,0.0597 0.17913,-0.0896 0.0597,-0.0597 0.29856,0.0597 0.35827,0 0.0521,-0.0521 0.0519,-0.28299 0.0896,-0.35826 0.0738,-0.14765 0.46501,-0.28587 0.5374,-0.35826 0.0472,-0.0472 0.0424,-0.13193 0.0896,-0.17913 0.0211,-0.0211 0.0685,0.0211 0.0896,0 0.0211,-0.0211 -0.0267,-0.0762 0,-0.0896 0.0534,-0.0267 0.12572,0.0267 0.17913,0 0.0267,-0.0134 -0.0211,-0.0685 0,-0.0896 0.0211,-0.0211 0.0685,0.0211 0.0896,0 0.0211,-0.0211 -0.0134,-0.0629 0,-0.0896 0.0537,-0.10748 0.21495,-0.16122 0.26869,-0.2687 0.0267,-0.0534 -0.0422,-0.13691 0,-0.17913 0.0211,-0.0211 0.0685,0.0211 0.0896,0 0.0422,-0.0422 -0.0534,-0.15243 0,-0.17913 0.0534,-0.0267 0.12573,0.0267 0.17913,0 0.0175,-0.009 0.0701,-0.1597 0.0896,-0.17913 0.18531,-0.18532 -0.007,0.28318 0.17913,-0.0896 0.0267,-0.0534 -0.0422,-0.13691 0,-0.17913 0.0568,-0.0568 0.28369,0.0373 0.35826,0 0.0668,-0.0334 0.32889,-0.14975 0.35826,-0.17913 0.0211,-0.0211 -0.0211,-0.0685 0,-0.0896 0.0784,-0.0784 0.34787,-0.0562 0.44783,-0.0896 0.27957,-0.0932 -0.0298,-0.0597 0.0896,-0.17913 0.0836,-0.0836 0.75081,0 0.89566,0 0.70389,0 0.83553,0.0147 1.34348,0.26869 0.13938,0.0697 1.00111,-0.0737 1.07479,0 0.0211,0.0211 -0.0267,0.0762 0,0.0896 0.094,0.047 0.26486,0.0273 0.35826,0.0896 0.21414,0.14276 0.11325,0.20745 0.35827,0.2687 0.0869,0.0217 0.20536,-0.0633 0.26869,0 0.0211,0.0211 -0.0134,0.0629 0,0.0896 0.0296,0.0592 0.21408,0.15182 0.2687,0.17913 0.12363,0.0618 0.32512,0.0282 0.44783,0.0896 0.0267,0.0134 -0.0211,0.0685 0,0.0896 0.0226,0.0226 0.67445,0.0421 0.71653,0 0.0358,-0.0358 0.0485,-0.11382 0.17913,-0.17913 0.0534,-0.0267 0.13691,0.0422 0.17913,0 0.0211,-0.0211 -0.0211,-0.0685 0,-0.0896 0.0448,-0.0448 0.13435,-0.0448 0.17913,-0.0896 0.21754,-0.21754 -0.0266,-0.13152 0.17913,-0.2687 0.0786,-0.0524 0.20194,-0.0228 0.2687,-0.0896 0.0211,-0.0211 -0.0211,-0.0684 0,-0.0896 0.0448,-0.0448 0.22391,0.0448 0.2687,0 0.0359,-0.0358 0.0485,-0.11382 0.17913,-0.17913 0.0541,-0.027 0.22729,0.0414 0.2687,0 0.0211,-0.0211 -0.0211,-0.0685 0,-0.0896 0.0375,-0.0375 0.45066,-0.0462 0.53739,-0.0896 0.37275,-0.18638 -0.0958,0.006 0.0896,-0.17914 0.0272,-0.0272 0.59442,-0.15062 0.71653,-0.0896 0.0755,0.0378 0.1036,0.14137 0.17913,0.17913 0.0267,0.0134 0.0685,-0.0211 0.0896,0 0.0211,0.0211 -0.0211,0.0685 0,0.0896 0.0388,0.0388 0.40234,0.2232 0.44783,0.26869 0.0211,0.0211 -0.0211,0.0685 0,0.0896 0.0211,0.0211 0.0629,-0.0134 0.0896,0 0.0755,0.0378 0.10361,0.14137 0.17913,0.17913 0.0534,0.0267 0.13691,-0.0422 0.17914,0 0.0211,0.0211 -0.0211,0.0684 0,0.0896 0.0349,0.0349 0.3036,0 0.35826,0 0.0597,0 0.13691,0.0422 0.17913,0 0.0211,-0.0211 -0.0134,-0.0629 0,-0.0896 0.06,-0.11996 0.21367,-0.1241 0.2687,-0.17913 0.0211,-0.0211 -0.0211,-0.0685 0,-0.0896 0.0844,-0.0844 0.2424,0.029 0.35826,0 0.041,-0.0102 0.0518,-0.0707 0.0896,-0.0896 0.30697,-0.15349 0.83736,0.109 1.16435,0 0.25758,-0.0859 0.70622,-0.18257 0.98522,-0.0896 0.24796,0.0827 0.91835,0.38096 0.98523,0.44783 0.0744,0.0744 -0.0706,0.93364 0,1.07479 0.0378,0.0755 0.13229,0.10887 0.17913,0.17913 0.037,0.0556 0.0362,0.13908 0.0896,0.17913 0.0755,0.0567 0.18426,0.0474 0.2687,0.0896 0.11996,0.06 0.12411,0.21367 0.17913,0.2687 0.0422,0.0422 0.12573,-0.0267 0.17914,0 0.0378,0.0189 0.0518,0.0707 0.0896,0.0896 0.31422,0.15711 1.56819,-0.15634 1.88088,0 0.0755,0.0378 0.1036,0.14137 0.17913,0.17913 0.0534,0.0267 0.12573,-0.0267 0.17913,0 0.13063,0.0653 0.14328,0.14328 0.17914,0.17913 0.0465,0.0465 0.36219,0.13632 0.44782,0.17913 0.12144,0.0607 0.46401,0.0162 0.5374,0.0896 0.0472,0.0472 0.0424,0.13193 0.0896,0.17913 0.15169,0.15169 0.29615,0.0275 0.44783,0.17913 0.0211,0.0211 -0.0211,0.0685 0,0.0896 0.0299,0.0299 0.23884,0.0597 0.2687,0.0896 0.0211,0.0211 -0.0211,0.0685 0,0.0896 0.0422,0.0422 0.15243,-0.0534 0.17913,0 0.0267,0.0534 -0.0422,0.13691 0,0.17913 0.0448,0.0448 0.22392,-0.0448 0.2687,0 0.0448,0.0448 0.0448,0.13435 0.0896,0.17914 0.0391,0.0391 0.45093,0.22545 0.5374,0.26869 0.0534,0.0267 0.13691,-0.0422 0.17913,0 0.055,0.055 0.0592,0.20872 0.17913,0.2687 0.0529,0.0264 0.32855,0.14942 0.35827,0.17913 0.0211,0.0211 -0.0211,0.0684 0,0.0896 0.0211,0.0211 0.0685,-0.0211 0.0896,0 0.0211,0.0211 -0.0211,0.0684 0,0.0896 0.0211,0.0211 0.0685,-0.0211 0.0896,0 0.0913,0.0913 -0.0986,0.1746 0.0896,0.2687 0.11711,0.0585 0.18231,-0.0832 0.2687,0.0896 0.0267,0.0534 -0.0422,0.13692 0,0.17913 0.0211,0.0211 0.0684,-0.0211 0.0896,0 0.0732,0.0732 0.0164,0.46422 0.0896,0.5374 0.0211,0.0211 0.0685,-0.0211 0.0896,0 0.0597,0.0597 -0.0597,0.29855 0,0.35826 0.0448,0.0448 0.13435,0.0448 0.17913,0.0896 0.003,0.003 0.0577,0.23681 0.0896,0.2687 0.0211,0.0211 0.0597,0 0.0896,0 0.0597,0.0298 0.1421,0.034 0.17913,0.0896 0.0331,0.0497 -0.0267,0.12573 0,0.17913 0.0134,0.0267 0.0629,-0.0134 0.0896,0 0.0963,0.0481 0.17241,0.13099 0.2687,0.17913 0.25484,0.12743 1.56875,-0.13299 1.70174,0 0.0211,0.0211 -0.0267,0.0762 0,0.0896 0.0534,0.0267 0.12573,-0.0267 0.17914,0 0.0588,0.0294 0.12042,0.56826 0.17913,0.62696 0.0211,0.0211 0.0685,-0.0211 0.0896,0 0.0598,0.0598 -0.0598,0.11937 0,0.17913 0.0211,0.0211 0.0762,-0.0267 0.0896,0 0,0.50754 -0.0597,0.0299 0.0896,0.17913 0.0668,0.0668 0.005,0.22648 0.0896,0.2687 0.0534,0.0267 0.12572,-0.0267 0.17913,0 0.002,0.001 0.0845,0.53235 0.17913,0.62696 0.0519,0.0519 0.30635,0.12722 0.35826,0.17913 0.0668,0.0668 0.0228,0.20194 0.0896,0.2687 0.0211,0.0211 0.0685,-0.0211 0.0896,0 0.0422,0.0422 -0.0267,0.12572 0,0.17913 0.0378,0.0755 0.14136,0.1036 0.17913,0.17913 0.0134,0.0267 -0.0211,0.0685 0,0.0896 0.0211,0.0211 0.0684,-0.0211 0.0896,0 0.0422,0.0422 -0.0422,0.13691 0,0.17913 0.33039,0.33038 0.0361,-0.21448 0.35827,0.2687 0.0567,0.0851 0.0211,0.37941 0.0896,0.44783 0.18532,0.18531 -0.007,-0.28319 0.17913,0.0896 0.0619,0.12376 0.0457,0.31614 0.0896,0.44783 0.0698,0.20939 0.20741,0.3818 0.2687,0.62696 0.0427,0.17088 0.0335,0.78351 0.0896,0.89566 0.18463,0.36925 0.17913,0.80685 0.17913,1.25392 0,0.074 0.006,1.06844 0,1.07479 -0.0211,0.0211 -0.0685,-0.0211 -0.0896,0 -0.0633,0.0633 0.0401,0.18859 0,0.26869 -0.0134,0.0267 -0.0685,-0.0211 -0.0896,0 -0.0211,0.0211 0.0211,0.0685 0,0.0896 -0.0472,0.0472 -0.13192,0.0424 -0.17913,0.0896 -0.0128,0.0128 -0.2585,0.41724 -0.2687,0.44783 -0.0672,0.20149 -0.0207,0.78538 0.0896,0.89565 0.0211,0.0211 0.0685,-0.0211 0.0896,0 0.0541,0.0541 0,0.45246 0,0.5374 0,0.77623 0,1.55247 0,2.32871 0,0.23311 0.0735,0.58568 0,0.80609 -0.22624,0.6787 0.0323,-0.0323 -0.17914,0.17913 -0.0505,0.0505 0.0239,0.28668 0,0.35826 -0.10649,0.31948 -0.21745,0.61403 -0.35826,0.89566 -0.0354,0.0707 0.0252,0.19316 0,0.2687 -0.0389,0.11678 -0.0345,0.24816 -0.0896,0.35826 -0.0134,0.0267 -0.0762,-0.0267 -0.0896,0 -0.0267,0.0534 0.0267,0.12573 0,0.17913 -0.0134,0.0267 -0.0762,-0.0267 -0.0896,0 -0.0717,0.14331 0.0717,0.39409 0,0.53739 -0.097,0.19391 -0.12317,0.51506 -0.17913,0.62697 -0.0378,0.0755 -0.14136,0.1036 -0.17913,0.17913 -0.0534,0.10679 -0.0984,0.36712 -0.17913,0.44783 -0.0211,0.0211 -0.0685,-0.0211 -0.0896,0 -0.0597,0.0597 0.0597,0.29855 0,0.35826 -0.0211,0.0211 -0.0684,-0.0211 -0.0896,0 -0.0422,0.0422 0.0267,0.12572 0,0.17913 -0.0189,0.0378 -0.0707,0.0518 -0.0896,0.0896 -0.0717,0.14331 0.0717,0.3941 0,0.5374 -0.0573,0.11469 -0.13932,0.23884 -0.17913,0.35826 -0.0567,0.0804 0.0283,0.18373 0,0.2687 -0.0627,0.18809 -0.206,0.34931 -0.2687,0.53739 -0.0189,0.0566 0.0422,0.13692 0,0.17914 -0.0613,0.0613 -0.11487,0.0117 -0.17913,0.26869 -0.0357,0.14259 0.0663,0.40477 0,0.5374 -0.0189,0.0378 -0.0597,0.0597 -0.0896,0.0896 0,0.0896 0.0217,0.18181 0,0.2687 -0.0102,0.041 -0.0762,0.0495 -0.0896,0.0896 -0.0189,0.0566 0.0331,0.12945 0,0.17913 -0.037,0.0555 -0.1421,0.034 -0.17913,0.0896 -0.0331,0.0497 0.0267,0.12573 0,0.17914 -0.0134,0.0267 -0.0685,-0.0211 -0.0896,0 -0.0375,0.0375 -0.0624,0.21441 -0.0896,0.26869 -0.0686,0.13718 -0.15961,0.0701 -0.2687,0.17913 -0.0472,0.0472 -0.0525,0.12359 -0.0896,0.17914 -0.093,0.13943 -0.22662,0.18093 -0.35826,0.26869 -0.14299,0.0953 -0.159,0.24857 -0.2687,0.35827 -0.0375,0.0375 -0.21441,0.0624 -0.26869,0.0896 -0.13718,0.0686 -0.07,0.15961 -0.17913,0.2687 -0.0211,0.0211 -0.0685,-0.0211 -0.0896,0 -0.0211,0.0211 0.0211,0.0685 0,0.0896 -0.0211,0.0211 -0.0647,-0.0166 -0.0896,0 -0.0703,0.0469 -0.10888,0.1323 -0.17914,0.17914 -0.0536,0.0357 -0.29201,0.16257 -0.35826,0.17913 -0.0869,0.0217 -0.18554,-0.0333 -0.2687,0 -0.0784,0.0314 -0.10887,0.13229 -0.17913,0.17913 -0.0497,0.0331 -0.13691,-0.0422 -0.17913,0 -0.0211,0.0211 0.0267,0.0762 0,0.0896 -0.0499,0.0249 -0.46416,0.0652 -0.53739,0.0896 -0.13127,0.0437 -0.20182,0.21655 -0.35827,0.2687 -0.26067,0.0869 -0.38186,0.008 -0.62696,0.0896 -0.19512,-0.0335 -0.0298,0.14928 -0.0896,0.17914 -0.0801,0.0401 -0.20537,-0.0633 -0.2687,0 -0.0668,0.0668 -0.0228,0.20193 -0.0896,0.26869 -0.0668,0.0668 -0.20194,0.0228 -0.26869,0.0896 -0.0211,0.0211 0.0211,0.0685 0,0.0896 -0.0211,0.0211 -0.0685,-0.0211 -0.0896,0 -0.0211,0.0211 0.0211,0.0685 0,0.0896 -0.0211,0.0211 -0.0629,-0.0134 -0.0896,0 -0.13333,0.0667 -0.23883,0.27864 -0.35827,0.35826 -0.24643,0.16429 -0.3726,0.15406 -0.71653,0.2687 -0.0801,0.0267 -0.1036,0.14137 -0.17913,0.17913 -0.15208,0.076 -0.37659,0.0987 -0.53739,0.17913 -0.10433,0.0522 -0.16437,0.12697 -0.2687,0.17913 -0.0534,0.0267 -0.12572,-0.0267 -0.17913,0 -0.25194,0.12598 -0.2903,0.32428 -0.53739,0.44783 -0.0534,0.0267 -0.12573,-0.0267 -0.17914,0 -0.19969,0.0999 -0.43281,0.17163 -0.62696,0.2687 -0.0534,0.0267 -0.12572,-0.0267 -0.17913,0 -0.26751,0.13376 -0.67645,0.28107 -0.98522,0.35826 -0.0579,0.0145 -0.12572,-0.0267 -0.17913,0 -0.0267,0.0134 0.0211,0.0685 0,0.0896 -0.0795,0.0795 -0.42661,0.0342 -0.5374,0.0896 -0.23899,0.1195 -0.46201,0.32058 -0.71652,0.44783 -0.0534,0.0267 -0.13691,-0.0422 -0.17913,0 -0.0211,0.0211 0.0267,0.0762 0,0.0896 -0.10682,0.0534 -0.24241,-0.029 -0.35827,0 -0.33879,0.0847 -0.49534,0.20289 -0.80609,0.35826 -0.11552,0.0578 -0.34275,0.037 -0.44783,0.0896 -0.0175,0.009 -0.0701,0.1597 -0.0896,0.17913 -0.0681,0.0681 -0.35387,0.0426 -0.44783,0.0896 -0.37275,0.18637 0.0957,-0.006 -0.0896,0.17913 -0.0211,0.0211 -0.0684,-0.0211 -0.0896,0 -0.005,0.005 -0.17569,0.26179 -0.17914,0.26869 -0.0941,0.18819 -0.17739,-0.002 -0.26869,0.0896 -0.0299,0.0298 -0.0597,0.23884 -0.0896,0.2687 -0.0211,0.0211 -0.0762,-0.0267 -0.0896,0 -0.0267,0.0534 0.0189,0.12248 0,0.17913 -0.0206,0.0617 -0.34481,0.70306 -0.35827,0.71653 -0.0422,0.0422 -0.13691,-0.0422 -0.17913,0 -0.0211,0.0211 0.0211,0.0685 0,0.0896 -0.0422,0.0422 -0.13691,-0.0422 -0.17913,0 -0.16088,0.16088 0.38646,0.066 -0.17913,0.17913 -0.17118,0.0342 -0.46615,0.009 -0.62696,0.0896 -0.20333,0.10166 -0.28955,0.27565 -0.5374,0.35826 -0.0566,0.0189 -0.12572,-0.0267 -0.17913,0 -0.0267,0.0134 0.0211,0.0685 0,0.0896 -0.11657,0.11657 -1.09147,0.22808 -1.25392,0.26869 -0.4325,0.10813 0.004,0.0426 -0.26869,0.17913 -0.0951,0.0476 -0.27843,0.01 -0.35827,0.0896 -0.21147,0.21147 0.49957,-0.0471 -0.17913,0.17913 -0.1381,0.046 -0.60027,0.0388 -0.71652,0 -0.0892,-0.0297 -0.17951,-0.1494 -0.2687,-0.17913 -0.0566,-0.0189 -0.1212,0.0145 -0.17913,0 -0.27249,-0.0681 -0.56466,-0.18822 -0.80609,-0.2687 -0.0655,-0.0218 -0.22771,-0.0971 -0.2687,-0.17913 -0.0134,-0.0267 0.0283,-0.0801 0,-0.0896 -0.63527,0 -0.0525,0.0633 -0.35826,-0.0896 -0.0635,-0.0317 -0.83423,-0.0614 -0.89566,0 -0.0211,0.0211 0.0134,0.0629 0,0.0896 -0.0961,0.1922 -0.0978,0.004 -0.2687,0.0896 -0.006,0.003 -0.21955,0.37848 -0.35826,0.44783 -0.18597,0.093 -1.5006,0.022 -1.61219,-0.0896 -0.0448,-0.0448 -0.0448,-0.13434 -0.0896,-0.17913 -0.0422,-0.0422 -0.14601,0.0497 -0.17913,0 -0.10161,-0.1524 -0.0775,-0.29542 -0.17913,-0.44783 -0.0469,-0.0703 -0.14137,-0.1036 -0.17914,-0.17913 -0.0267,-0.0534 0.0267,-0.12572 0,-0.17913 -0.0298,-0.0597 -0.14927,-0.0299 -0.17913,-0.0896 -0.0585,-0.117 -0.0628,-1.04806 -0.17913,-1.16436 -0.0422,-0.0422 -0.12572,0.0267 -0.17913,0 -0.0597,-0.0298 -0.0299,-0.14928 -0.0896,-0.17913 -0.0534,-0.0267 -0.12944,0.0331 -0.17913,0 -0.0555,-0.037 -0.0479,-0.127 -0.0896,-0.17913 -0.0791,-0.0989 -0.16737,-0.1927 -0.2687,-0.2687 -0.0239,-0.0179 -0.0762,0.0267 -0.0896,0 -0.0267,-0.0534 0.0267,-0.12572 0,-0.17913 -0.0267,-0.0534 -0.1369,0.0422 -0.17913,0 -1.07479,-1.07479 0.56725,0.32841 -0.62696,-0.62696 -0.1513,-0.12104 -0.21991,-0.33253 -0.35826,-0.44783 -0.10257,-0.0855 -0.24377,-0.11044 -0.35826,-0.17913 -0.25601,-0.15361 -0.48087,-0.3541 -0.71653,-0.53739 -0.13331,-0.10369 -0.20721,-0.28274 -0.35826,-0.35827 -0.22021,-0.1101 -0.48794,-0.0877 -0.71653,-0.17913 -0.0999,-0.04 -0.16658,-0.14509 -0.2687,-0.17913 -0.0741,-0.0247 0.16405,0.29887 0.0896,0.44783 -0.096,0.19195 -0.57749,0.383 -0.80609,0.2687 -0.20372,-0.10186 -0.23509,-0.67166 -0.2687,-0.8061 -0.0107,-0.0426 -0.16848,-0.22608 -0.17913,-0.2687 -0.0193,-0.0772 0.0437,-0.38231 0,-0.44782 -0.037,-0.0556 -0.13193,-0.0424 -0.17913,-0.0896 -0.0422,-0.0422 0.0331,-0.12945 0,-0.17913 -0.54364,-0.81546 0.0488,0.32541 -0.17913,-0.35826 -0.0267,-0.0801 -0.13229,-0.10887 -0.17913,-0.17913 -0.0385,-0.0578 -0.14035,-0.31948 -0.17914,-0.35827 -0.0448,-0.0448 -0.13434,-0.0448 -0.17913,-0.0896 -0.0422,-0.0422 0.0267,-0.12573 0,-0.17914 -0.18637,-0.37275 0.006,0.0958 -0.17913,-0.0896 -0.0448,-0.0448 0.0448,-0.22391 0,-0.2687 -0.0249,-0.0249 -0.38937,-0.0506 -0.44783,-0.0896 -0.0248,-0.0166 0,-0.0597 0,-0.0896 -0.0298,-0.0299 -0.0518,-0.0707 -0.0896,-0.0896 -0.0534,-0.0267 -0.13691,0.0422 -0.17913,0 -0.0211,-0.0211 0.0211,-0.0685 0,-0.0896 -0.0422,-0.0422 -0.12573,0.0267 -0.17914,0 -0.11996,-0.06 -0.1241,-0.21367 -0.17913,-0.2687 -0.0211,-0.0211 -0.0684,0.0211 -0.0896,0 -0.0299,-0.0299 -0.26211,-0.69674 -0.2687,-0.71652 -0.11942,-0.35827 -0.0299,-0.0299 -0.2687,-0.2687 -0.25219,-0.006 -0.0228,-0.20194 -0.0896,-0.2687 -0.0211,-0.0211 -0.0684,0.0211 -0.0896,0 -0.0465,-0.0465 0,-1.59376 0,-1.88088 0,-0.12701 0.22677,-0.75846 0.0896,-0.89566 -0.0442,-0.0442 -0.39639,-0.34112 -0.44782,-0.35826 -0.24504,-0.0817 -1.14338,-0.13052 -1.25392,-0.2687 -0.10875,-0.13594 -0.17213,-0.30298 -0.2687,-0.44783 -0.0468,-0.0703 -0.14137,-0.1036 -0.17913,-0.17913 -0.0134,-0.0267 0.0211,-0.0685 0,-0.0896 -0.0211,-0.0211 -0.0685,0.0211 -0.0896,0 -0.0472,-0.0472 -0.0525,-0.12359 -0.0896,-0.17913 -0.0847,-0.12706 -0.20017,-0.1106 -0.2687,-0.17914 -0.0586,-0.0586 -0.0557,-0.20698 -0.17913,-0.26869 -0.15667,-0.0783 -0.28262,-0.27566 -0.44783,-0.35826 -0.0267,-0.0134 -0.0762,0.0267 -0.0896,0 -0.0267,-0.0534 0.0267,-0.12573 0,-0.17914 -0.0147,-0.0293 -0.53631,-0.17841 -0.53739,-0.17913 -0.20758,-0.13839 -0.28986,-0.49179 -0.35826,-0.53739 -0.0497,-0.0331 -0.13691,0.0422 -0.17914,0 -0.0422,-0.0422 0.0267,-0.12573 0,-0.17914 -0.0134,-0.0267 -0.0684,0.0211 -0.0896,0 -0.0744,-0.0744 -0.049,-0.6843 -0.0896,-0.80609 -0.0134,-0.0401 -0.0707,-0.0518 -0.0896,-0.0896 -0.10295,-0.20589 0.0134,-0.6002 -0.0896,-0.80609 -0.11068,-0.22136 -0.0896,0.0309 -0.0896,-0.17914 0,-0.0429 0.0353,-0.60932 0,-0.62695 -0.20203,-0.10102 -0.61971,0.12425 -0.8061,0 -0.0555,-0.037 -0.0424,-0.13193 -0.0896,-0.17914 -0.168,-0.16799 -0.24275,0.19338 -0.35827,-0.26869 -0.0199,-0.0796 0.0299,-0.40305 0,-0.44783 -0.0331,-0.0497 -0.12572,0.0267 -0.17913,0 -0.0277,-0.0138 0.016,-0.23666 0,-0.2687 -0.0189,-0.0378 -0.0762,-0.0495 -0.0896,-0.0896 -0.12572,-0.37714 0.15178,-1.48775 0,-1.79131 -0.0189,-0.0378 -0.0762,-0.0495 -0.0896,-0.0896 -0.006,-0.0181 0.0298,-0.32846 0,-0.35826 -0.0858,-0.0858 -0.4376,-0.15867 -0.53739,-0.35826 -0.027,-0.0541 0.0414,-0.2273 0,-0.2687 -0.0211,-0.0211 -0.0685,0.0211 -0.0896,0 -0.0143,-0.0143 -0.0557,-0.34626 -0.0896,-0.44783 -0.0189,-0.0566 0.0422,-0.13691 0,-0.17913 -0.0211,-0.0211 -0.0685,0.0211 -0.0896,0 -0.0746,-0.0746 0.0746,-0.37319 0,-0.44783 -0.0211,-0.0211 -0.0684,0.0211 -0.0896,0 -0.0608,-0.0608 0.041,-0.27629 0,-0.35826 -0.0189,-0.0378 -0.0762,-0.0495 -0.0896,-0.0896 -0.0223,-0.0669 -0.11746,-1.64595 -0.0896,-1.70175 0.17374,-0.34746 0.33028,-0.59897 0.62696,-0.89565 z"
       id="path252" />
  </g>
</svg>
