<?xml version="1.0" encoding="utf-8"?>
<!-- Generator: Adobe Illustrator 26.0.2, SVG Export Plug-In . SVG Version: 6.00 Build 0)  -->
<svg version="1.1" id="Layer_1" xmlns="http://www.w3.org/2000/svg" xmlns:xlink="http://www.w3.org/1999/xlink" x="0px" y="0px"
	 viewBox="0 0 212 207" style="enable-background:new 0 0 212 207;" xml:space="preserve">
<style type="text/css">
	.st0{stroke:#FFFFFF;stroke-width:2;}
</style>
<g>
	<path class="st0" d="M13.27,202.99c-4.57-0.06-7.92-4.21-6.19-11.65c11.26-48.17,22.59-96.33,33.74-144.53
		c1-4.32,3.01-6.28,7.34-7.36c40.23-10.08,80.4-20.41,120.6-30.62c6.73-1.71,11.73,1.66,12.73,8.51
		c7.63,52.23,15.22,104.47,22.84,156.7c0.62,4.28,1.17,8.59,1.97,12.84c0.7,3.7-0.15,5.47-4.38,5.66
		c-14.47,0.67-28.92,1.73-43.38,2.55c-40.89,2.32-81.79,4.6-122.69,6.87C29.35,202.33,22.86,202.56,13.27,202.99z"/>
</g>
</svg>
