<?xml version="1.0" encoding="utf-8"?>
<!-- Generator: Adobe Illustrator 26.0.2, SVG Export Plug-In . SVG Version: 6.00 Build 0)  -->
<svg version="1.1" id="Layer_1" xmlns="http://www.w3.org/2000/svg" xmlns:xlink="http://www.w3.org/1999/xlink" x="0px" y="0px"
	 viewBox="0 0 271 202" style="enable-background:new 0 0 271 202;" xml:space="preserve">
<style type="text/css">
	.st0{stroke:#FFFFFF;stroke-width:3;stroke-miterlimit:10;}
</style>
<g>
	<path class="st0" d="M256.31,85.07c0,6.78-1.01,12.84-2.37,18.87c-1.12,4.97-1.01,9.7,1.22,14.59c1.96,4.29,2.44,9.21,3.6,13.83
		c0.88,3.5-0.56,6.9-5.14,7.65c-6.81,1.1-12.37,3.79-15.75,10.54c-1.73,3.46-5.38,5.89-7.71,9.12c-2.99,4.15-5.99,4.86-10.33,1.89
		c-4.67-3.19-11.06-4.57-11.07-12.04c0-0.47-0.73-1.22-1.26-1.37c-5.44-1.53-10.83-3.38-16.38-4.28c-4.08-0.66-6.78,2.6-5.4,6.48
		c3.72,10.44-2,18.7-5.64,27.47c-0.84,2.03-2.39,1.88-4.16,1.15c-8.38-3.49-16.7-6.98-18.99-17.23c-0.54-2.4-2.36-3.82-4.49-5.06
		c-2.61-1.53-6.16-2.08-6.99-5.84c-0.08-0.35-0.77-0.85-1.13-0.82c-5.74,0.6-11.73-3.01-17.3,1.47c-3.68,2.95-8.45,3.91-12.91,5.16
		c-11.71,3.27-23.55,6.06-35.22,9.47c-4.68,1.37-8.73,1.16-12.82-1.38c-1.69-1.05-3.5-2.02-5.39-2.61
		c-4.61-1.44-6.25-3.96-3.78-8.51c1.15-2.12,0.85-4.06-0.95-5.87c-8.54-8.61-15.42-18.27-18.96-30.07c-0.88-2.94-3.09-4.5-6.17-5.16
		c-4.55-0.97-9.01-2.41-13.57-3.34c-2.95-0.6-4.23-2-4.3-5.04c-0.12-5.66-0.45-11.31-0.86-16.96c-0.43-5.99,0.14-11.17,5.3-15.64
		c3.69-3.19,4.11-8.91,6.76-13.21c3.84-6.24,7.31-12.64,12.55-17.92c1.46-1.47,2.4-3.6,3.19-5.59c2.37-5.99,4.79-7.63,11.31-7.39
		c1.82,0.07,3.7,0.16,5.48-0.16c3.2-0.57,5.8-1.84,4.99-5.94c-0.69-3.53,2.07-5,4.27-6.69c8.18-6.3,8.2-6.27,14.79,1.52
		c0.54,0.64,1.2,1.19,1.64,1.88c7.33,11.54,18.93,12.16,30.94,12.89c10.64,0.64,21.25-1.81,31.83,0.29
		c3.9,0.78,7.71,1.45,11.31,3.58c3.05,1.81,7.08,0.24,10.57,1.73c4.34,1.86,5.93-2.13,8.46-4.41c3.3-2.96,8.01-1.33,11.92-2.79
		c1.8-0.67,3.8-0.98,5.58-1.91c4.77-2.47,6.53-1.89,7.82,3.24c1.95,7.73,6.84,12.62,14.09,15.22c5.98,2.14,10.78,5.72,15.91,9.45
		c8.67,6.29,15.27,14.69,23.86,20.89C258.06,78.66,255.43,82.55,256.31,85.07z"/>
</g>
</svg>
