<?xml version="1.0" encoding="utf-8"?>
<!-- Generator: Adobe Illustrator 26.0.2, SVG Export Plug-In . SVG Version: 6.00 Build 0)  -->
<svg version="1.1" id="Layer_1" xmlns="http://www.w3.org/2000/svg" xmlns:xlink="http://www.w3.org/1999/xlink" x="0px" y="0px"
	 viewBox="0 0 161 190" style="enable-background:new 0 0 161 190;" xml:space="preserve">
<style type="text/css">
	.st0{stroke:#FFFFFF;stroke-width:2;}
</style>
<g>
	<path class="st0" d="M9.22,181.95c48.47-13.88,96.57-27.66,145.95-41.8c-1.71-6.65-2.57-13.41-5.17-19.43
		c-5.52-12.8-12-25.19-17.98-37.8c-9.78-20.66-19.42-41.38-29.3-61.99c-0.77-1.61-2.91-3.26-4.65-3.59
		c-18.94-3.5-37.92-6.77-56.9-10.03c-3.5-0.6-7.05-0.86-10.89-1.32c-0.48,3.94-0.8,7.38-1.33,10.8C25.33,40.4,21.67,64,18.01,87.6
		c-3.6,23.23-7.06,46.49-10.88,69.68C5.76,165.62,5.9,173.61,9.22,181.95z"/>
	<path class="st0" d="M9.22,181.95c-3.33-8.34-3.47-16.33-2.09-24.66c3.83-23.19,7.28-46.45,10.88-69.68
		C21.67,64,25.33,40.4,28.96,16.79c0.52-3.42,0.85-6.86,1.33-10.8c3.84,0.46,7.4,0.72,10.89,1.32c18.98,3.26,37.96,6.53,56.9,10.03
		c1.74,0.32,3.88,1.98,4.65,3.59c9.89,20.6,19.52,41.33,29.3,61.99c5.97,12.61,12.45,25,17.98,37.8c2.59,6.02,3.46,12.78,5.17,19.43
		C105.79,154.29,57.69,168.06,9.22,181.95z"/>
</g>
</svg>
