<?xml version="1.0" encoding="utf-8"?>
<!-- Generator: Adobe Illustrator 26.0.2, SVG Export Plug-In . SVG Version: 6.00 Build 0)  -->
<svg version="1.1" id="Layer_1" xmlns="http://www.w3.org/2000/svg" xmlns:xlink="http://www.w3.org/1999/xlink" x="0px" y="0px"
	 viewBox="0 0 201 159" style="enable-background:new 0 0 201 159;" xml:space="preserve">
<style type="text/css">
	.st0{stroke:#FFFFFF;stroke-width:2;stroke-miterlimit:10;}
</style>
<g>
	<path class="st0" d="M7.71,107.18c0.42-1.95,0.72-3.93,1.27-5.84c8.6-30.28,17.21-60.55,25.85-90.81c1.82-6.37,2.03-6.44,7.41-2.78
		c49.87,33.88,99.71,67.81,149.65,101.59c3.66,2.48,4.74,4.97,3.39,9.1c-3.47,10.6-6.9,21.23-9.97,31.95
		c-1.25,4.34-3.49,4.24-7.08,3.32c-33.88-8.65-67.8-17.17-101.7-25.73c-21.15-5.34-42.3-10.68-63.43-16.08
		C10.64,111.27,7.42,111.21,7.71,107.18z"/>
</g>
</svg>
