<?xml version="1.0" encoding="utf-8"?>
<!-- Generator: Adobe Illustrator 24.0.0, SVG Export Plug-In . SVG Version: 6.00 Build 0)  -->
<svg version="1.1" xmlns="http://www.w3.org/2000/svg" xmlns:xlink="http://www.w3.org/1999/xlink" x="0px" y="0px"
	 viewBox="0 0 394.21 404.43" style="enable-background:new 0 0 394.21 404.43;" xml:space="preserve">
<style type="text/css">
	.st0{display:none;}
	.st1{display:inline;}
	.st2{display:inline;stroke:#FFFFFF;stroke-width:2.8346;stroke-miterlimit:10;}
	.st3{fill:none;stroke:#FFFFFF;stroke-width:2.8346;stroke-miterlimit:10;}
	.st4{stroke:#FFFFFF;stroke-width:2.8346;stroke-miterlimit:10;}
	.st5{display:inline;stroke:#FFFFFF;stroke-width:2.8346;}
</style>
<g id="Layer_2" class="st0">
	<rect class="st1" width="394.21" height="404.43"/>
</g>
<g id="Layer_3" class="st0">
	<path class="st2" d="M159.26,84.02c-0.95,3.98,0.33,7.27,5.85,7.67c4.44,7.53,12.7,6.96,19.62,9.11
		c14.14,4.39,28.35,8.56,42.53,12.84c1.75,0.53,3.44,1.27,5.2,1.69c5.22,1.23,7.61-0.57,8.07-5.94c0.55-6.44,2.1-8.1,7.67-7.85
		c6.26,0.28,11.12,3.49,10.11,8.85c-0.37,1.93-0.11,3.99-0.12,5.99c-0.01,1.18-0.05,2.48,1.07,3.16c5.48,3.32,10.14,7.73,16.93,9.16
		c9.18,1.92,18.05,5.33,27.13,7.82c9.77,2.68,12.52,10.15,14,18.96c1.87,11.16-0.27,22.21-0.42,33.3
		c-0.11,8.24-1.07,16.48-1.65,24.71c-1.23,17.35-1.89,34.74-3.73,52.06c-1.17,11.02-1.52,22.14-3.14,33.13
		c-1.2,8.11-5.03,12.07-13.56,13.5c-5.68,0.95-10.7,3.03-15.17,6.58c-0.38,0.3-0.84,0.63-1.3,0.71c-9.09,1.47-16.68,5.87-23.54,11.8
		c-0.61,0.52-1.55,0.93-2.73,0.5c-16.55-5.96-33.11-11.86-49.7-17.7c-10.39-3.66-20.86-7.11-31.25-10.78
		c-16.75-5.91-33.48-11.88-50.2-17.9c-17.5-6.3-34.91-12.87-52.5-18.89c-3.67-1.26-4.65-3.53-4.41-6.36
		c1.13-13.53,2.44-27.06,3.98-40.55c1.26-11.03,3.61-21.97,4.19-33.02c0.35-6.5-0.87-13.15-0.86-19.8c0-15.48,1.73-30.82,4.31-45.99
		c2.53-14.83,9.1-27.94,21.28-37.48c6.95-5.45,14.72-5.27,22.46-1.81c4.69,2.1,9.81,2.6,14.55,4.73c4.67,2.1,8.27-0.42,8.59-4.7
		c0.62-8.27,1.56-9.35,7.8-8.99C156.98,72.91,159.5,75.89,159.26,84.02z"/>
</g>
<g id="Layer_4" class="st0">
	<path class="st2" d="M193.91,134.18c1.96,0,4.33-0.73,5.82,0.11c15.49,8.74,32.99,3.99,49.16,7.68c8.45,1.92,18.73-7.42,25.01,1.8
		c10.23,15.03,22.04,30,22.45,49.43c0.23,11.05,2.31,21.41,6.17,31.65c4.12,10.9,2.64,20.35-5.19,30.05
		c-15.47,19.14-34.34,34.29-53.58,49.1c-10.67,8.22-22.35,11.69-35.81,5.3c-14.82-7.04-31.25-9.75-46.33-16.43
		c-13.18-5.83-22.36-17.14-34.88-23.76c-3.64-1.93-2.5-5.65-1.38-8.84c5.85-16.62,4.44-34.42,8.34-51.36
		c1.06-4.61,0.16-9.2-2.97-13.03c-2.35-2.87-2.48-5.68-0.91-9.09c4.23-9.19-2.62-15-7.51-20.7c-4.55-5.32-11.15-4.82-17.33-2.15
		c-3.66,1.58-7.34,2.78-11.42,2.43c-15.11-1.28-21.16-12.12-13.72-26.09c6.89-12.92,17.62-23.23,28.99-31.73
		c12.52-9.36,24.44-19.92,38.76-26.79c2.36-1.13,4.8-2.28,7.33-2.86c6.53-1.49,14-5.49,19.1,1.51c5.06,6.95,5.7,15.14,1.39,23.29
		C166.28,120.94,174.55,134.44,193.91,134.18z"/>
</g>
<g id="Layer_5">
	<path class="st3" d="M137.7,139.23c4.33,0.72,10.84-1,12.24,7.51c0.4,2.44,4.29,4.92,7.12,6.21c6.09,2.77,10.8,7.06,15.38,11.68
		c16.38,16.51,33.03,32.77,49.09,49.59c8.51,8.92,18.1,17.1,23.16,28.93c1,2.34,3.19,4.52,5.37,5.93c7.13,4.6,7.66,9.14,1.42,14.84
		c-3.58,3.27-7.53,6.33-10.37,10.18c-3.08,4.17-3.74,9,1,13.04c4.72,4.02,7.23-0.43,10.34-2.6c6.31-4.41,10.35-12.62,20.25-11.01
		c2.87,0.47,5-2.6,6.13-5.67c2.24-6.03,1.04-11.44-1.57-17.17c-2.5-5.48-8.16-10.42-6.28-16.92c2.06-7.14-1.41-11.43-5.6-15.73
		c-29.03-29.8-58.09-59.57-87.23-89.27c-3.13-3.19-6.83-8.21-11.35-6.11c-5.1,2.37-8.13,0.14-11.83-1.73
		c-5.31-2.67-10.44-5.75-15.9-8.05c-6.1-2.57-12.34-1.49-13.36,5.64c-1.3,9.11-7.52,13.74-13.25,19.26c-1.7,1.64-3,3.81-4.14,5.92
		c-1.99,3.67-0.7,6.71,2.22,9.37c3.3,2.99,5.89,1.27,8.48-1.04c4.04-3.6,8.08-7.2,12.15-10.76
		C132.76,139.89,134.18,137.99,137.7,139.23z"/>
	<path class="st4" d="M191.54,177.39c3.36,7.15,7.06,14.17,10.01,21.48c5.08,12.6,13.44,22.68,22.48,32.6
		c7.81,8.57,14.28,18.36,21.3,27.65c1.1,1.45,1.9,3.14,2.98,4.6c4.37,5.89,4.39,5.91-2.62,8.77c-8.46,3.46-16.09,8.48-24.08,12.75
		c-8.29,4.43-17.79,7.57-27.59,7.35c-3.59-0.08-6.55,0.77-9.35,2.49c-2.52,1.55-5.3,2.56-8.02,2.38
		c-6.27-0.41-11.84,2.05-17.67,3.44c-3.77,0.9-7.6,0.54-11.39,0.87c-3.77,0.33-9.4-1.86-9.26,5.72c0.03,1.66-2.76,0.98-4.26,0.29
		c-1.12-0.52-1.57-2.46-3.23-1.83c-5.63,2.15-6.41-2.03-8.31-5.67c-2.58-4.95-5.92-9.52-9.09-14.15
		c-5.18-7.54-10.26-15.16-15.8-22.43c-6.03-7.91-10.4-16.64-13.77-25.89c-9.04-24.84-20.04-48.54-37.54-68.79
		c-3.57-4.13-6.26-9.03-9.39-13.54c-1.72-2.49-1.16-4.04,1.82-4.53c3.28-0.54,6.58-1.05,9.89-1.39c14.38-1.5,27.6-7.4,41.42-10.99
		c30.44-7.92,60.89-15.87,90.88-25.4c14.75-4.69,29.14-10.51,42.81-17.82c4.77-2.55,8.76-2.43,12.89,0.71
		c12.2,9.29,25.64,16.79,37.88,25.99c7.09,5.33,11.31,13.48,16.31,20.69c7.12,10.25,13.53,21,19.32,32.08
		c2.46,4.71,5.99,8.31,9.83,11.8c8.75,7.94,16.57,16.88,25.93,24.16c0.92,0.71,1.77,1.92,2.77,2.05c5.58,0.72,5,6.79,8.38,9.47
		c1.22,0.97-0.37,1.65-1.65,1.98c-8.42,2.16-15.89,5.98-22.52,11.78c-3.92,3.43-9.31,4.16-14.34,5.26c-1.1,0.24-2.45-0.2-3.2,0.97
		c-5.38,8.35-15.05,7.1-22.82,9.73c-5.21,1.76-10.76,2.89-16.15,4.42c-4.95,1.41-8.69,4.14-12.64,6.97
		c-2.51,1.8-4.32,1.54-7.02-1.14c-4.47-4.44-4.64-10.55-7.83-15.34c-6.97-10.46-15.27-19.8-24.69-28
		c-9.38-8.16-14.91-19.06-22.16-28.74C198.8,185.84,196.73,180.61,191.54,177.39z"/>
</g>
<g id="Layer_1" class="st0">
	<path class="st5" d="M172.03,115.87c0-12.36-0.09-21.36,0.05-30.35c0.05-2.96-0.46-4.88-3.64-6.1c-5.72-2.19-3.53-7.55-3.95-11.76
		c-0.36-3.67,2.49-4.92,5.22-5.7c11.53-3.27,23.07-2.77,34.45,0.71c2.71,0.83,5.29,2.4,4.94,6.02c-0.42,4.29,1.16,9.55-4.49,11.58
		c-3.08,1.11-3.76,2.94-3.96,5.9c-1.57,23.45-2.27,46.91-1.65,70.41c0.15,5.69,3.69,9.86,5.78,14.69c0.46,1.06,1.58,1.11,2.57,1.21
		c11.46,1.26,22.95,1.94,34.31-0.61c9.68-2.17,15.6-8.44,18.2-17.94c0.6-2.21,0.81-4.12-1.94-5.31c-4.71-2.05-3.33-6.39-3.23-10.06
		c0.1-3.29,2.9-4.44,5.45-5.04c9.8-2.3,19.52-1.83,28.98,1.71c2.76,1.03,5.02,2.72,4.75,6.23c-0.28,3.53-0.35,7.19-4.55,8.58
		c-1.86,0.62-3.12,1.4-3.44,3.65c-3.6,25.69-23.41,44.55-55.95,45.34c-7.85,0.19-15.66-0.17-23.46-0.82
		c-2.67-0.22-4.17,0.52-5.53,2.97c-2.49,4.48-3.71,9.07-3.99,14.21c-0.92,16.97-1.51,33.94-1.61,50.94
		c-0.02,4.09,1.38,5.47,5.23,5.94c7.63,0.94,15.02,2.95,22.05,6.16c3.2,1.46,6.17,3.28,8.77,5.68c6.91,6.4,6.77,14.14-0.62,20.07
		c-7.53,6.03-16.57,8.39-25.86,9.79c-20.93,3.15-41.51,1.77-61.53-5.46c-4.41-1.59-8.55-3.75-12.09-6.87
		c-8.14-7.18-7.62-14.77,1.3-20.93c8.93-6.17,19.13-8.6,29.65-9.41c4.83-0.37,5.83-2.05,6.1-6.59c1.02-17.49,0.8-34.96,0.56-52.45
		c-0.08-5.86-2.98-10.47-5.18-15.45c-0.96-2.18-3.09-1.52-4.84-1.65c-12.79-0.98-25.64-1.75-37.8-6.36
		c-20.39-7.73-32.71-22.24-36.16-43.93c-0.51-3.22-1.15-5.64-4.68-7.31c-4.88-2.3-4.64-11.06,0.33-13.08
		c10.58-4.31,21.48-4.4,32.1-0.08c4.97,2.03,5.33,11.14,0.51,13.54c-3.47,1.73-3.49,3.81-2.7,6.8c2.81,10.54,9.49,17.36,19.85,20.59
		c10.11,3.15,20.59,3.88,31.08,4.35c2.86,0.13,7.32-5.81,7.88-10.8c0.71-6.29,1.11-12.61,1.5-18.92
		C171.37,130.81,172.31,121.68,172.03,115.87z"/>
</g>
</svg>
