<?xml version="1.0" encoding="utf-8"?>
<!-- Generator: Adobe Illustrator 26.0.2, SVG Export Plug-In . SVG Version: 6.00 Build 0)  -->
<svg version="1.1" id="Layer_1" xmlns="http://www.w3.org/2000/svg" xmlns:xlink="http://www.w3.org/1999/xlink" x="0px" y="0px"
	 viewBox="0 0 215 259" style="enable-background:new 0 0 215 259;" xml:space="preserve">
<style type="text/css">
	.st0{stroke:#FFFFFF;stroke-width:2;stroke-miterlimit:10;}
</style>
<g>
	<path class="st0" d="M211.08,210.4c-0.36,4.52-3.03,6.41-6.99,7.49c-20.57,5.62-41.1,11.39-61.66,17.08
		c-23.92,6.62-47.89,13.1-71.76,19.92c-4.56,1.3-6.46,0.38-7.9-4.18C44.11,191.44,25.26,132.21,6.48,72.97
		c-1.87-5.89-1.11-7.28,5.51-9.93c19.8-7.93,39.62-15.8,59.44-23.69c27.09-10.78,54.19-21.55,81.28-32.33
		c6.35-2.53,6.47-2.5,8.08,3.89c16.5,65.25,32.98,130.51,49.46,195.77C210.58,207.97,210.84,209.27,211.08,210.4z"/>
</g>
</svg>
