<?xml version="1.0" encoding="utf-8"?>
<!-- Generator: Adobe Illustrator 24.0.0, SVG Export Plug-In . SVG Version: 6.00 Build 0)  -->
<svg version="1.1" xmlns="http://www.w3.org/2000/svg" xmlns:xlink="http://www.w3.org/1999/xlink" x="0px" y="0px"
	 viewBox="0 0 394.21 404.43" style="enable-background:new 0 0 394.21 404.43;" xml:space="preserve">
<style type="text/css">
	.st0{display:none;}
	.st1{display:inline;}
	.st2{stroke:#FFFFFF;stroke-width:2.8346;}
</style>
<g id="Layer_2" class="st0">
	<rect class="st1" width="394.21" height="404.43"/>
</g>
<g id="Layer_1">
	<path class="st2" d="M172.03,115.87c0-12.36-0.09-21.36,0.05-30.35c0.05-2.96-0.46-4.88-3.64-6.1c-5.72-2.19-3.53-7.55-3.95-11.76
		c-0.36-3.67,2.49-4.92,5.22-5.7c11.53-3.27,23.07-2.77,34.45,0.71c2.71,0.83,5.29,2.4,4.94,6.02c-0.42,4.29,1.16,9.55-4.49,11.58
		c-3.08,1.11-3.76,2.94-3.96,5.9c-1.57,23.45-2.27,46.91-1.65,70.41c0.15,5.69,3.69,9.86,5.78,14.69c0.46,1.06,1.58,1.11,2.57,1.21
		c11.46,1.26,22.95,1.94,34.31-0.61c9.68-2.17,15.6-8.44,18.2-17.94c0.6-2.21,0.81-4.12-1.94-5.31c-4.71-2.05-3.33-6.39-3.23-10.06
		c0.1-3.29,2.9-4.44,5.45-5.04c9.8-2.3,19.52-1.83,28.98,1.71c2.76,1.03,5.02,2.72,4.75,6.23c-0.28,3.53-0.35,7.19-4.55,8.58
		c-1.86,0.62-3.12,1.4-3.44,3.65c-3.6,25.69-23.41,44.55-55.95,45.34c-7.85,0.19-15.66-0.17-23.46-0.82
		c-2.67-0.22-4.17,0.52-5.53,2.97c-2.49,4.48-3.71,9.07-3.99,14.21c-0.92,16.97-1.51,33.94-1.61,50.94
		c-0.02,4.09,1.38,5.47,5.23,5.94c7.63,0.94,15.02,2.95,22.05,6.16c3.2,1.46,6.17,3.28,8.77,5.68c6.91,6.4,6.77,14.14-0.62,20.07
		c-7.53,6.03-16.57,8.39-25.86,9.79c-20.93,3.15-41.51,1.77-61.53-5.46c-4.41-1.59-8.55-3.75-12.09-6.87
		c-8.14-7.18-7.62-14.77,1.3-20.93c8.93-6.17,19.13-8.6,29.65-9.41c4.83-0.37,5.83-2.05,6.1-6.59c1.02-17.49,0.8-34.96,0.56-52.45
		c-0.08-5.86-2.98-10.47-5.18-15.45c-0.96-2.18-3.09-1.52-4.84-1.65c-12.79-0.98-25.64-1.75-37.8-6.36
		c-20.39-7.73-32.71-22.24-36.16-43.93c-0.51-3.22-1.15-5.64-4.68-7.31c-4.88-2.3-4.64-11.06,0.33-13.08
		c10.58-4.31,21.48-4.4,32.1-0.08c4.97,2.03,5.33,11.14,0.51,13.54c-3.47,1.73-3.49,3.81-2.7,6.8c2.81,10.54,9.49,17.36,19.85,20.59
		c10.11,3.15,20.59,3.88,31.08,4.35c2.86,0.13,7.32-5.81,7.88-10.8c0.71-6.29,1.11-12.61,1.5-18.92
		C171.37,130.81,172.31,121.68,172.03,115.87z"/>
</g>
</svg>
