<?xml version="1.0" encoding="utf-8"?>
<!-- Generator: Adobe Illustrator 26.0.2, SVG Export Plug-In . SVG Version: 6.00 Build 0)  -->
<svg version="1.1" id="Layer_1" xmlns="http://www.w3.org/2000/svg" xmlns:xlink="http://www.w3.org/1999/xlink" x="0px" y="0px"
	 viewBox="0 0 201 98" style="enable-background:new 0 0 201 98;" xml:space="preserve">
<style type="text/css">
	.st0{stroke:#FFFFFF;stroke-width:2;stroke-miterlimit:10;}
</style>
<g>
	<path class="st0" d="M194.07,55.06c-0.08,0.87-0.11,1.2-0.15,1.53c-1.12,11.45-1.12,11.44-11.91,15.69
		c-16.58,6.53-33.18,13.02-49.72,19.66c-3.28,1.32-6.22,1.49-9.61,0.27C86.8,79.25,50.92,66.31,14.92,53.7
		c-5.27-1.85-6-4.57-5.86-9.61C9.28,37,12.21,32.5,17.98,28.71c7.22-4.75,13.97-10.24,20.81-15.55c2.45-1.9,4.77-2.42,7.84-1.59
		C94.08,24.33,141.55,37,189.03,49.63C192.26,50.49,194.84,51.52,194.07,55.06z"/>
</g>
</svg>
