<?xml version="1.0" encoding="utf-8"?>
<!-- Generator: Adobe Illustrator 26.0.2, SVG Export Plug-In . SVG Version: 6.00 Build 0)  -->
<svg version="1.1" id="Layer_1" xmlns="http://www.w3.org/2000/svg" xmlns:xlink="http://www.w3.org/1999/xlink" x="0px" y="0px"
	 viewBox="0 0 164 171" style="enable-background:new 0 0 164 171;" xml:space="preserve">
<style type="text/css">
	.st0{stroke:#FFFFFF;stroke-width:2;stroke-miterlimit:10;}
</style>
<g>
	<path class="st0" d="M30.38,165.95c-14.46,0.1-14.69,0.12-15.79-12.14c-2.76-30.5-5.28-61.03-7.92-91.55
		c-0.6-6.96-1.15-13.94-1.94-20.88c-0.44-3.87,1.21-5.66,4.76-6.89c26.43-9.19,52.8-18.56,79.21-27.81
		c6.45-2.26,8.17-1.42,10.78,4.68c18.9,44.27,37.73,88.57,56.78,132.78c2.61,6.05,0.64,11.5-0.98,16.95
		c-1.01,3.39-4.88,2.98-7.8,3.05c-14.15,0.34-28.31,0.57-42.46,0.8C79.52,165.36,54.03,164.78,30.38,165.95z"/>
</g>
</svg>
