<?xml version="1.0" encoding="utf-8"?>
<!-- Generator: Adobe Illustrator 26.0.2, SVG Export Plug-In . SVG Version: 6.00 Build 0)  -->
<svg version="1.1" id="Layer_1" xmlns="http://www.w3.org/2000/svg" xmlns:xlink="http://www.w3.org/1999/xlink" x="0px" y="0px"
	 viewBox="0 0 330 282.68" style="enable-background:new 0 0 330 282.68;" xml:space="preserve">
<style type="text/css">
	.st0{stroke:#FFFFFF;stroke-width:4;stroke-miterlimit:10;}
</style>
<g>
	<path class="st0" d="M45.76,96.95c5.58-15.77,15.45-26.53,26.51-36.49c24.74-22.29,53.69-36.52,86.12-42.95
		c31.31-6.21,62.15-4.26,91.91,8.94c17.61,7.81,31.46,19.86,42.55,35.16c4.15,5.73,7.32,12.39,9.86,19.03
		c7.38,19.33,13.88,38.93,13.27,61.24c0.95,8.93-2.53,17.86-6,27.22c-4.78,12.91-11.43,24.46-20.07,34.82
		c-7.73,9.28-16.15,17.93-25.41,25.91c-14.64,12.6-30.99,22.07-48.84,28.58c-16.65,6.08-33.7,11.04-51.82,11.83
		c-11.72,0.51-23.25-0.5-34.84-1.27c-8.9-0.59-16.95-4.7-25.32-7.42c-18.58-6.04-34-16.97-46.39-31.73
		c-9.02-10.75-16.53-23.15-20.11-36.65C29.67,164.81,32.68,133.95,45.76,96.95z"/>
</g>
</svg>
