<?xml version="1.0" encoding="UTF-8" standalone="no"?>
<!-- Created with Inkscape (http://www.inkscape.org/) -->

<svg
   xmlns:dc="http://purl.org/dc/elements/1.1/"
   xmlns:cc="http://creativecommons.org/ns#"
   xmlns:rdf="http://www.w3.org/1999/02/22-rdf-syntax-ns#"
   xmlns:svg="http://www.w3.org/2000/svg"
   xmlns="http://www.w3.org/2000/svg"
   xmlns:sodipodi="http://sodipodi.sourceforge.net/DTD/sodipodi-0.dtd"
   xmlns:inkscape="http://www.inkscape.org/namespaces/inkscape"
   width="500mm"
   height="500mm"
   viewBox="0 0 500 500"
   version="1.1"
   id="svg7144"
   inkscape:version="0.92.1 r15371"
   sodipodi:docname="compass.svg"
   inkscape:export-filename="C:\Users\TJ\Documents\_laptop-decal\jpg-todo\hobbies\explore_adventure\done\compass.png"
   inkscape:export-xdpi="96"
   inkscape:export-ydpi="96">
  <defs
     id="defs7138" />
  <sodipodi:namedview
     id="base"
     pagecolor="#ffffff"
     bordercolor="#666666"
     borderopacity="1.0"
     inkscape:pageopacity="0.0"
     inkscape:pageshadow="2"
     inkscape:zoom="0.08838835"
     inkscape:cx="-1027.0722"
     inkscape:cy="589.83943"
     inkscape:document-units="mm"
     inkscape:current-layer="layer1"
     showgrid="false"
     inkscape:window-width="1366"
     inkscape:window-height="715"
     inkscape:window-x="-8"
     inkscape:window-y="-8"
     inkscape:window-maximized="1" />
  <metadata
     id="metadata7141">
    <rdf:RDF>
      <cc:Work
         rdf:about="">
        <dc:format>image/svg+xml</dc:format>
        <dc:type
           rdf:resource="http://purl.org/dc/dcmitype/StillImage" />
        <dc:title></dc:title>
      </cc:Work>
    </rdf:RDF>
  </metadata>
  <g
     inkscape:label="compass"
     inkscape:groupmode="layer"
     id="layer1"
     style="display:inline"
     transform="translate(0,203)">
    <path
       style="color:#9a8770;font-style:normal;font-variant:normal;font-weight:normal;font-stretch:normal;font-size:medium;line-height:normal;font-family:sans-serif;font-variant-ligatures:normal;font-variant-position:normal;font-variant-caps:normal;font-variant-numeric:normal;font-variant-alternates:normal;font-feature-settings:normal;text-indent:0;text-align:start;text-decoration:none;text-decoration-line:none;text-decoration-style:solid;text-decoration-color:#9a8770;letter-spacing:normal;word-spacing:normal;text-transform:none;writing-mode:lr-tb;direction:ltr;text-orientation:mixed;dominant-baseline:auto;baseline-shift:baseline;text-anchor:start;white-space:normal;shape-padding:0;clip-rule:nonzero;display:inline;overflow:visible;visibility:visible;opacity:1;isolation:auto;mix-blend-mode:normal;color-interpolation:sRGB;color-interpolation-filters:linearRGB;solid-color:#9a8770;solid-opacity:1;vector-effect:none;fill:#9a8770;fill-opacity:1;fill-rule:nonzero;stroke:none;stroke-width:4.71131134;stroke-linecap:round;stroke-linejoin:round;stroke-miterlimit:4;stroke-dasharray:none;stroke-dashoffset:0;stroke-opacity:1;color-rendering:auto;image-rendering:auto;shape-rendering:auto;text-rendering:auto;enable-background:accumulate"
       d="m 236.60219,-198 v 3.45069 l 5.52014,0.82778 v 42.85124 l -5.52014,0.75799 v 3.38252 h 16.76653 v -3.38252 l -6.55404,-0.68982 v -39.46872 l 5.31238,9.10717 23.46179,34.43389 h 5.45034 v -46.99175 l 5.52013,-0.82778 V -198 h -16.28447 v 3.45069 l 6.00381,0.82778 v 36.70946 l -3.86458,-7.31365 L 249.43597,-198 Z m 24.86576,58.80785 L 240.272,3.59447 158.87558,-54.42781 215.91588,23.607196 75.55904,47.383858 201.5077,66.081874 l 2.37296,0.352212 15.01684,2.228504 -40.90191,57.37791 -5.75548,8.07488 -10.86822,15.24733 6.28624,-4.59497 3.23157,-2.36161 L 239.40689,92.322403 263.18356,232.67925 284.37952,89.892633 365.77593,147.91491 308.73563,69.879914 449.09247,46.103243 305.95364,24.85535 c -0.0309,-0.06025 -0.0598,-0.121695 -0.0909,-0.181786 l 57.41687,-80.549174 -78.035,57.04032 z m 0.74338,23.0755 -0.43986,114.82399 c -6.12136,0.17633 -11.96072,1.48538 -17.3054,3.75097 z m 83.22889,77.66006 -48.74307,50.79141 c -2.78894,-2.71799 -5.90413,-5.10289 -9.28408,-7.0848 z m -169.14562,1.86818 52.04605,49.9474 -1.75618,2.24149 c -0.84121,0.98716 -1.63852,2.01093 -2.39894,3.0644 l -3.19748,4.083694 z m 86.8776,40.75584 c 23.53962,0 42.56233,19.021088 42.56233,42.560701 0,23.539613 -19.02271,42.568825 -42.56233,42.568825 -23.53961,0 -42.56071,-19.029212 -42.56071,-42.568825 0,-23.539613 19.0211,-42.560701 42.56071,-42.560701 z m 0,11.94432 c -16.88299,0 -30.61638,13.733386 -30.61638,30.616381 0,16.882995 13.73339,30.624491 30.61638,30.624491 16.88301,0 30.618,-13.741496 30.618,-30.624491 0,-16.882995 -13.73499,-30.616381 -30.618,-30.616381 z m 188.55943,4.11455 v 3.450685 l 5.65809,0.827773 v 42.919417 l -5.72789,0.689816 v 3.3809 h 38.29685 l 2.00127,-12.006012 -4.07072,-1.241665 -3.65844,8.693281 -19.45762,0.691436 V 47.068983 l 11.52232,0.206127 0.96736,5.934028 h 3.79479 V 37.338544 h -3.79479 l -0.96736,5.727892 -11.52232,0.206136 V 23.814951 l 17.11225,0.413883 2.00127,6.692011 h 3.93275 L 486.8537,20.2263 Z M 263.1722,20.82359 c 14.33683,0 25.90616,11.567726 25.90616,25.904541 0,14.336816 -11.56933,25.912657 -25.90616,25.912657 -14.33681,0 -25.90617,-11.575841 -25.90617,-25.912657 0,-14.336815 11.56936,-25.904541 25.90617,-25.904541 z M 8.040049,22.125307 v 3.450698 l 4.554395,0.895943 14.698719,47.267677 h 6.554045 L 44.059699,39.169396 54.617911,73.739625 h 6.761801 L 75.111061,26.403779 79.665457,25.576005 V 22.125307 H 63.243015 v 3.450698 l 6.831598,0.827774 -8.694901,32.155069 -1.93148,10.350456 L 57.10124,58.558848 47.786321,26.403779 54.548114,25.576005 V 22.125307 H 35.158662 v 3.450698 l 4.89849,0.827774 1.863311,5.864229 -7.935297,26.29084 -2.277194,9.590843 -2.001269,-9.590843 -9.452886,-32.155069 6.485868,-0.827774 v -3.450698 z m 299.867801,7.045845 118.10913,17.675466 -114.79316,-0.43986 c -0.0401,-6.078301 -1.21081,-11.889553 -3.31597,-17.235606 z m -209.273319,17.469331 111.053549,0.425251 2.59857,0.0097 2.83879,0.01138 c 0.0457,6.201924 1.2876,12.117154 3.47829,17.552118 -0.0178,-0.01803 -0.0323,-0.03382 -0.0504,-0.05194 L 205.52964,62.637654 203.1437,62.280571 Z M 304.2981,71.58091 l 44.05882,58.4946 -51.3319,-49.26245 c 2.7814,-2.763393 5.22966,-5.861238 7.27308,-9.23215 z m -75.50136,8.694902 c 2.75071,2.818929 5.84099,5.304701 9.20942,7.383447 l -58.79487,44.284431 z m 51.28645,11.439553 -17.643,117.888385 0.43985,-114.819118 c 0.0978,5.82e-4 0.19418,0.0083 0.29216,0.0083 5.95069,0 11.64804,-1.093027 16.91099,-3.077377 z M 263.34912,239.41995 c -3.40415,0 -6.39473,0.57528 -8.97084,1.72534 -2.53011,1.15005 -4.48579,2.73645 -5.86585,4.76054 -1.33405,1.9781 -1.99964,4.23169 -1.99964,6.76179 0,2.80612 0.68938,5.22138 2.06944,7.24548 1.42606,1.97808 3.08221,3.56611 4.96828,4.76215 1.9321,1.19607 4.1857,2.36882 6.7618,3.51887 2.85212,1.24204 5.08356,2.32289 6.69363,3.24293 1.65608,0.92005 2.96672,2.02468 3.93275,3.31273 1.01206,1.28806 1.51921,2.82848 1.51921,4.62257 0,2.76012 -0.92078,4.9218 -2.76087,6.48587 -1.79407,1.56407 -4.43915,2.347 -7.9353,2.347 -2.11609,0 -4.07176,-0.27575 -5.86585,-0.82779 -1.74806,-0.59802 -3.01276,-1.26524 -3.79479,-2.00127 l -1.1735,-8.97082 h -4.4148 l -0.55348,12.48968 c 0.69003,0.046 1.72655,0.32177 3.1066,0.82778 2.2541,0.69003 4.32386,1.24153 6.20995,1.65555 1.88607,0.41402 4.02397,0.62165 6.41608,0.62165 3.95616,0 7.31439,-0.71318 10.07453,-2.13924 2.80612,-1.47206 4.87752,-3.3342 6.21157,-5.5883 1.38006,-2.2541 2.06945,-4.60125 2.06945,-7.03935 0,-2.57612 -0.68939,-4.78376 -2.06945,-6.62383 -1.33405,-1.8861 -2.94422,-3.40435 -4.83032,-4.5544 -1.88608,-1.15004 -4.32514,-2.43852 -7.31527,-3.86458 -3.22016,-1.51807 -5.56566,-2.71299 -7.03773,-3.58703 -1.47205,-0.87405 -2.71457,-1.93272 -3.72662,-3.17477 -0.96605,-1.24207 -1.44942,-2.7825 -1.44942,-4.62256 0,-2.53013 0.80509,-4.46364 2.41516,-5.79769 1.65608,-1.33405 4.07136,-1.99964 7.24548,-1.99964 1.70209,0 3.26629,0.20598 4.69236,0.62001 1.47207,0.41401 2.43883,0.85145 2.89884,1.31147 l 1.37963,8.48714 h 4.20868 l 0.41388,-11.59212 c -0.64402,-0.092 -1.42532,-0.29964 -2.34536,-0.62165 -2.07009,-0.55201 -3.93386,-0.98943 -5.58993,-1.31145 -1.61008,-0.32203 -3.47222,-0.48206 -5.5883,-0.48206 z"
       id="path7700"
       inkscape:connector-curvature="0" />
    <g
       id="g4560" />
  </g>
</svg>
