<?xml version="1.0" encoding="utf-8"?>
<!-- Generator: Adobe Illustrator 26.0.2, SVG Export Plug-In . SVG Version: 6.00 Build 0)  -->
<svg version="1.1" id="Layer_1" xmlns="http://www.w3.org/2000/svg" xmlns:xlink="http://www.w3.org/1999/xlink" x="0px" y="0px"
	 viewBox="0 0 250 165" style="enable-background:new 0 0 250 165;" xml:space="preserve">
<style type="text/css">
	.st0{stroke:#FFFFFF;stroke-width:2;stroke-miterlimit:10;}
</style>
<g>
	<path class="st0" d="M187.93,157.97c-37.15,0-74.3,0.39-111.45-0.15c-20.99-0.3-41.98-0.46-62.96-0.86
		c-7.04-0.13-9.11-2.03-8.69-9.03c1.37-22.6,2.92-45.19,4.46-67.79c1.04-15.28,2.27-30.55,3.17-45.84c0.24-4.1,2.04-5.21,5.85-5.6
		c39.75-4.11,79.47-8.43,119.21-12.63c30.96-3.27,61.94-6.39,92.89-9.78c4.28-0.47,5.39,1.68,5.73,4.96
		c0.72,6.79,1.35,13.59,1.85,20.39c3.02,40.84,5.96,81.69,9.03,122.53c0.33,4.42-0.76,6.36-5.63,6.22
		c-17.81-0.54-35.65,0.11-53.46-1.06C187.93,158.88,187.93,158.42,187.93,157.97z"/>
</g>
</svg>
