<?xml version="1.0" encoding="utf-8"?>
<!-- Generator: Adobe Illustrator 26.0.2, SVG Export Plug-In . SVG Version: 6.00 Build 0)  -->
<svg version="1.1" id="Layer_1" xmlns="http://www.w3.org/2000/svg" xmlns:xlink="http://www.w3.org/1999/xlink" x="0px" y="0px"
	 viewBox="0 0 330 144" style="enable-background:new 0 0 330 144;" xml:space="preserve">
<style type="text/css">
	.st0{stroke:#FFFFFF;stroke-width:2;stroke-miterlimit:10;}
</style>
<g>
	<path class="st0" d="M320.84,67.29c-0.23,12.61-2.06,25.29-7.64,37.39c-4.66,10.12-8.43,20.67-12.32,31.13
		c-1.44,3.86-3.19,5.32-7.69,4.77c-53.55-6.55-107.13-12.85-160.7-19.2c-40.01-4.74-80.02-9.49-120.05-14.12
		c-3.62-0.42-4.82-1.98-4.81-5.45c0-5.99-0.25-11.98-0.54-17.97c-0.17-3.57,0.93-6.25,3.69-8.75
		c11.61-10.51,23.04-21.22,34.44-31.95c2.61-2.46,5.46-4.24,8.83-5.43c21.53-7.58,43.06-15.15,64.5-22.96
		c4.14-1.51,7.93-1.67,12.12-0.62c32.31,8.11,64.65,16.12,96.98,24.13c29.27,7.25,58.53,14.49,87.83,21.63
		C319.34,60.83,322.24,62.08,320.84,67.29z"/>
</g>
</svg>
