<?xml version="1.0" encoding="UTF-8" standalone="no"?>
<!-- Generator: Adobe Illustrator 16.0.0, SVG Export Plug-In . SVG Version: 6.00 Build 0)  -->

<svg
   version="1.1"
   id="Capa_1"
   x="0px"
   y="0px"
   width="292.111px"
   height="292.11px"
   viewBox="0 0 292.111 292.11"
   style="enable-background:new 0 0 292.111 292.11;"
   xml:space="preserve"
   sodipodi:docname="jigsaw.svg"
   inkscape:version="1.1.1 (1:1.1+202109281949+c3084ef5ed)"
   xmlns:inkscape="http://www.inkscape.org/namespaces/inkscape"
   xmlns:sodipodi="http://sodipodi.sourceforge.net/DTD/sodipodi-0.dtd"
   xmlns="http://www.w3.org/2000/svg"
   xmlns:svg="http://www.w3.org/2000/svg"><defs
   id="defs121" /><sodipodi:namedview
   id="namedview119"
   pagecolor="#ffffff"
   bordercolor="#666666"
   borderopacity="1.0"
   inkscape:pageshadow="2"
   inkscape:pageopacity="0.0"
   inkscape:pagecheckerboard="0"
   showgrid="false"
   inkscape:zoom="2.762658"
   inkscape:cx="146.05499"
   inkscape:cy="146.05499"
   inkscape:window-width="1920"
   inkscape:window-height="1016"
   inkscape:window-x="0"
   inkscape:window-y="27"
   inkscape:window-maximized="1"
   inkscape:current-layer="Capa_1" />
<g
   id="g86">
	<g
   id="g84">
		<path
   style="fill:#030303;"
   d="M228.246,292.11H129.05l10.79-24.609c1.559-3.546,2.339-7.309,2.339-11.208    c0-15.467-12.585-28.053-28.053-28.053c-15.47,0-28.052,12.586-28.052,28.053c0,3.899,0.783,7.674,2.33,11.208l10.772,24.604    H0.005V63.868h90.699c0.174-0.257,0.274-0.538,0.274-0.76c0-0.034,0-0.072-0.006-0.106c-0.854-0.726-1.529-1.307-2.43-2.19    C81.916,53.99,78.319,45.15,78.319,35.81C78.319,16.065,94.387,0,114.131,0s35.81,16.065,35.81,35.81    c0,9.352-3.594,18.191-10.124,24.896l-2.242,1.987c-0.083,0.192-0.111,0.332-0.111,0.403c0,0.257,0.1,0.521,0.263,0.761h90.519    v90.622c0.252,0.137,0.572,0.245,0.887,0.245c0.543-0.577,1.212-1.366,2.178-2.338c6.822-6.619,15.668-10.216,24.988-10.216    c19.738,0,35.807,16.071,35.807,35.81c0,19.75-16.068,35.812-35.807,35.812c-9.332,0-18.178-3.597-24.908-10.138l-1.978-2.162    c-0.366-0.057-0.841,0.041-1.167,0.206V292.11z M146.973,280.4h69.562v-80.179c0-1.395,0.371-2.772,1.074-3.956    c3.534-6.096,12.534-8.383,18.63-4.403l1.154,0.995l2.168,2.413c4.522,4.392,10.47,6.816,16.736,6.816    c13.289,0,24.096-10.813,24.096-24.096c0-13.289-10.812-24.107-24.096-24.107c-6.262,0-12.214,2.424-16.748,6.827    c-0.521,0.526-0.927,1.029-1.332,1.526c-0.744,0.933-1.738,1.881-2.562,2.436c-7.238,4.031-14.649,1.075-18.057-4.785    c-0.703-1.224-1.063-2.562-1.063-3.935V75.578h-80.173c-1.369,0-2.722-0.363-3.905-1.041c-4.134-2.39-6.699-6.77-6.699-11.43    c0-2.493,0.778-4.995,2.256-7.242l1.615-1.787l1.598-1.341c4.649-4.877,6.996-10.732,6.996-16.928    c0-13.292-10.807-24.099-24.099-24.099c-13.292,0-24.101,10.807-24.101,24.099c0,6.272,2.424,12.214,6.816,16.742    c0.526,0.515,0.978,0.889,1.424,1.241c0.995,0.8,1.978,1.833,2.533,2.656c1.341,2.408,1.887,4.532,1.887,6.653    c0,4.643-2.547,9.012-6.653,11.398c-1.206,0.704-2.57,1.072-3.951,1.072H11.716v204.816H81.27l-3.588-8.199    c-2.196-5.026-3.314-10.373-3.314-15.896c0-21.923,17.834-39.763,39.763-39.763c21.926,0,39.763,17.84,39.763,39.763    c0,5.529-1.114,10.876-3.322,15.907L146.973,280.4z"
   id="path82" />
	</g>
</g>
<g
   id="g88">
</g>
<g
   id="g90">
</g>
<g
   id="g92">
</g>
<g
   id="g94">
</g>
<g
   id="g96">
</g>
<g
   id="g98">
</g>
<g
   id="g100">
</g>
<g
   id="g102">
</g>
<g
   id="g104">
</g>
<g
   id="g106">
</g>
<g
   id="g108">
</g>
<g
   id="g110">
</g>
<g
   id="g112">
</g>
<g
   id="g114">
</g>
<g
   id="g116">
</g>
<path
   style="fill:#000000;stroke:none;stroke-width:0.36197"
   d="M 11.945018,178.09538 V 75.844801 l 41.174115,-0.09651 41.174115,-0.09651 1.572837,-0.839373 c 2.246897,-1.199095 4.472355,-3.565983 5.695815,-6.057779 0.9424,-1.919376 1.05666,-2.523967 1.05666,-5.590822 0,-4.503612 -0.92143,-6.621518 -4.073617,-9.363211 -3.926019,-3.414747 -6.810263,-8.381071 -7.849636,-13.516147 -0.70317,-3.474051 -0.709143,-5.248581 -0.02979,-8.851689 1.665866,-8.835282 8.784605,-16.448774 17.563583,-18.784249 3.10611,-0.826319 8.50229,-0.846265 11.58305,-0.04282 8.60195,2.24335 15.5592,9.244234 17.54075,17.650746 0.70387,2.98613 0.70924,8.267298 0.0112,11.02261 -1.04917,4.141317 -3.17005,7.787289 -6.72902,11.567736 -4.24132,4.505251 -4.85446,5.81293 -4.83744,10.31702 0.0114,3.003014 0.14009,3.700907 1.01602,5.508018 1.19218,2.45957 3.53205,4.971462 5.71696,6.137267 l 1.57933,0.842689 41.17412,0.09651 41.17411,0.09651 v 41.006533 41.00654 l 0.92232,1.85085 c 1.15439,2.31656 3.58347,4.58285 6.25369,5.8346 1.71941,0.80603 2.55573,0.96299 5.13098,0.96299 4.4945,0 5.93889,-0.67234 10.1959,-4.74601 3.99398,-3.82199 6.15304,-5.1919 10.2371,-6.4954 3.95896,-1.26357 7.6063,-1.4963 11.43628,-0.72973 11.87435,2.37666 20.11686,12.89352 19.42846,24.78931 -0.35687,6.16691 -2.52537,10.96019 -6.96853,15.40336 -2.89482,2.89481 -5.44967,4.52357 -9.27796,5.91483 -2.384,0.86638 -3.15355,0.96484 -7.54151,0.96484 -4.38796,0 -5.15751,-0.0985 -7.5415,-0.96484 -3.87248,-1.40732 -6.3544,-3.0182 -9.44426,-6.12976 -3.9594,-3.98721 -5.05438,-4.47853 -9.98102,-4.47853 -3.55098,0 -4.19702,0.10279 -5.97251,0.95031 -2.74099,1.30839 -4.82958,3.22665 -5.94056,5.45609 l -0.93688,1.88007 v 41.01255 41.01255 H 181.8513 c -27.54444,0 -34.56853,-0.0923 -34.41893,-0.45246 0.10338,-0.24885 1.17716,-2.7381 2.38617,-5.53164 1.20901,-2.79356 2.53127,-6.37706 2.93836,-7.96335 2.74054,-10.67912 1.04533,-21.83939 -4.74705,-31.25169 -2.28416,-3.71163 -7.42393,-9.13165 -11.01105,-11.61142 -8.95881,-6.19322 -20.43573,-8.53531 -31.02309,-6.33087 -17.84301,3.71516 -30.814865,18.99016 -31.668036,37.29065 -0.342825,7.35359 0.853852,12.64513 4.92702,21.7866 l 1.810883,4.06418 H 46.495309 11.945018 Z"
   id="path240" /></svg>
