<?xml version="1.0" encoding="utf-8"?>
<!-- Generator: Adobe Illustrator 26.0.2, SVG Export Plug-In . SVG Version: 6.00 Build 0)  -->
<svg version="1.1" id="Layer_1" xmlns="http://www.w3.org/2000/svg" xmlns:xlink="http://www.w3.org/1999/xlink" x="0px" y="0px"
	 viewBox="0 0 93.8 93.8" style="enable-background:new 0 0 93.8 93.8;" xml:space="preserve">
<style type="text/css">
	.st0{fill:none;stroke:#231F20;stroke-dasharray:3.0122,3.0122;}
	.st1{fill:#231F20;}
</style>
<g>
	<path class="st0" d="M81,90.8H12.3c-5,0-9-4-9-9V13.1c0-5,4-9,9-9H81c5,0,9,4,9,9v68.7C90,86.8,86,90.8,81,90.8
		C81,90.8,86,90.8,81,90.8z"/>
</g>
<path class="st1" d="M69.9,38.2H23.4c-1.2,0-2.2-1-2.2-2.2v-1.8c0-1.2,1-2.2,2.2-2.2h46.5c1.2,0,2.2,1,2.2,2.2v1.8
	C72.1,37.3,71.1,38.2,69.9,38.2z"/>
<path class="st1" d="M69.9,50.6H23.4c-1.2,0-2.2-1-2.2-2.2v-1.8c0-1.2,1-2.2,2.2-2.2h46.5c1.2,0,2.2,1,2.2,2.2v1.8
	C72.1,49.6,71.1,50.6,69.9,50.6z"/>
<path class="st1" d="M69.9,62.9H23.4c-1.2,0-2.2-1-2.2-2.2v-1.8c0-1.2,1-2.2,2.2-2.2h46.5c1.2,0,2.2,1,2.2,2.2v1.8
	C72.1,61.9,71.1,62.9,69.9,62.9z"/>
</svg>
