<svg xmlns="http://www.w3.org/2000/svg" viewBox="0 0 533 330"><defs><style>.cls-1,.cls-5{font-size:24px;font-family:MyriadPro-Cond, Myriad Pro;}.cls-2{letter-spacing:-0.01em;}.cls-3{opacity:0.34;}.cls-4{fill:#373649;stroke-width:0.5px;opacity:0.56;}.cls-4,.cls-7,.cls-8,.cls-9{stroke:#000;stroke-miterlimit:10;}.cls-5,.cls-6{fill:#fff;}.cls-7,.cls-8,.cls-9{fill:none;}.cls-8,.cls-9{stroke-width:1px;}.cls-8{stroke-dasharray:1.42 1.42;}.cls-9{stroke-dasharray:1.42;}</style></defs><title>03_TIME</title><g id="Layer_6" data-name="Layer 6"><text class="cls-1" transform="translate(299.46 152.77)">time <tspan class="cls-2" x="37.9" y="0">r</tspan><tspan x="43.51" y="0">emaining</tspan></text><path class="cls-4" d="M396.49,176.67H94.15a2,2,0,0,1-1.46-3.35l10.28-11a2,2,0,0,1,1.46-.63H404.57a2,2,0,0,1,1.61,3.17l-8.08,11A2,2,0,0,1,396.49,176.67Z"/><text class="cls-5" transform="translate(300.46 151.77)">time <tspan class="cls-2" x="37.9" y="0">r</tspan><tspan x="43.51" y="0">emaining</tspan></text><polygon class="cls-6" points="397.5 176.67 216.56 176.67 230.56 161.67 408.5 161.67 397.5 176.67"/><path class="cls-7" d="M397.34,176.93H93a1.53,1.53,0,0,1-1.12-2.58l11.63-12.46a1.53,1.53,0,0,1,1.12-.49H406.47a1.53,1.53,0,0,1,1.24,2.44l-9.14,12.46A1.51,1.51,0,0,1,397.34,176.93Z"/><line class="cls-8" x1="89.5" y1="184.5" x2="200.2" y2="184.5"/><path d="M199.82,180.46c.53,0,1.26,0,2.37,0,.51,0,.63.19.8,1.09.07.39.37.18.79.3s.46,1.07.46,1.07c0,.2.11.21.18.18,1.49-.64,3.08.32,3.11.16.28-.76,1-.7,1.13-.5,0-.35.5-.63.66-.55.58.31.59.53,1,.67.73.32.58.66,1.28.7a1.24,1.24,0,0,1,.81.22c.53.52.07,1.22-.26,1.45.12.54-.66,1.2-.84,1.65a4.06,4.06,0,0,1,1.18.26c.29.1.22-.05.74,0a3.46,3.46,0,0,1,1.19.24c.12.06.8,0,1.15.16a1,1,0,0,1,.91,1.27s0,0-.22,0-.79.12-1.2.06a6.94,6.94,0,0,1-.81,0,6.11,6.11,0,0,0-1.41.15c-.08,0-.07,0-.25,0s-.09.09-.39.05a11.59,11.59,0,0,0-1.18,0c-.41,0-.74.08-1.74.17-.41,0-.73.22-1,.07-.46-.23-2.05-.93-3.76-1.77,0,0-.19-.1-.28.12s-.31.25-1,.23c-.48,0-.12.39-.65.38-.82,0-1.14-.09-2.32-.06-.49,0-.62,0-.63-.32v-7.23A.19.19,0,0,1,199.82,180.46Z"/><path class="cls-6" d="M216.23,188.61c0-.32-.56-.24-.79-.19s-.25.25-.11.3l.87-.08S216.24,188.62,216.23,188.61Z"/><path class="cls-6" d="M211.52,184.88c-.34,0-.31-.19-.49-.17s0,.13-.86.11a.88.88,0,0,1-.53-.08c-.08.06-.27.15-.4,0-.3.06-.19.09-.7,0-.69-.16-.83.12-1.15.28a.39.39,0,0,1-.3,0,7.54,7.54,0,0,0-2.48,0c-.61.11-.84.44-.82,1.26s.25.81.77,1c2.08.92,3.47,1.72,4,1.68a28.22,28.22,0,0,1,3.28-.24c.65.08.63-.25.87-.22s0,.2.65.15c1.26-.12,1.51.09,1.63-.11s.15-.43,1-.36h.13c.1,0,.1,0,0-.11a2.47,2.47,0,0,0-1.52-.26c-.45.07-.22-.1-1-.1-.32,0-.52,0-.62,0a2.76,2.76,0,0,0-1.15-.08c-.24.06-.36.14-.58,0a2.4,2.4,0,0,0-1.43-.2c-.84.1-.8.26-.88.2s.2-.42-.21-.74c-.22-.17-.44.49-.66.48s-.15-.13-.09-.27.28-.44.07-.6-1,.51-1.42.19c-.11-.08,0-.2.14-.19a1.31,1.31,0,0,0,.77-.33,5.08,5.08,0,0,1,1-.57c.78-.32,1-.08,1.18-.28s.37.07.65.12c.52.09,1.73-.35,1.61-.61,0-.09-.12-.08-.23-.06A.66.66,0,0,1,211.52,184.88Z"/><path class="cls-6" d="M211.23,184.23c.12.26.13.3.39.35s.86-.14.78-.41c-.07-.08-.34-.09-.51-.13S211.14,183.94,211.23,184.23Z"/><path class="cls-6" d="M203.32,182.11c.26,0,.29.17.33.33s-.12,1.25-.14,2.52a17.28,17.28,0,0,0,.08,2.31c0,.17.15.38-.08.39-.75,0-1,.1-1.1-.49a24.08,24.08,0,0,1,0-4.81C202.49,182.25,202.34,182,203.32,182.11Z"/><line class="cls-9" x1="210.5" y1="184.5" x2="396.5" y2="184.5"/></g></svg>