<svg xmlns="http://www.w3.org/2000/svg" viewBox="0 0 533 330"><defs><style>.cls-1,.cls-11{fill:#fff;}.cls-1,.cls-2,.cls-3{stroke:#000;stroke-miterlimit:10;}.cls-1{opacity:0.4;}.cls-2,.cls-3{fill:none;}.cls-3{stroke-width:1px;stroke-dasharray:2.27;}.cls-11,.cls-4{font-size:36px;font-family:MyriadPro-Cond, Myriad Pro;}.cls-5{letter-spacing:-0.01em;}.cls-6{letter-spacing:-0.01em;}.cls-7{letter-spacing:-0.01em;}.cls-8{letter-spacing:-0.01em;}.cls-9{letter-spacing:0.03em;}.cls-10{opacity:0.34;}</style></defs><title>04_INVENTORY</title><g id="Layer_6" data-name="Layer 6"><rect class="cls-1" x="129" y="55" width="250.28" height="250.28" rx="17.83"/><rect class="cls-2" x="129" y="55" width="250.28" height="250.28" rx="17.83"/><line class="cls-2" x1="211.35" y1="55.36" x2="211.35" y2="305.64"/><line class="cls-2" x1="293.34" y1="55.72" x2="293.34" y2="306"/><line class="cls-2" x1="379.28" y1="135.91" x2="129" y2="135.91"/><line class="cls-2" x1="379.28" y1="222.21" x2="129" y2="222.21"/><rect class="cls-2" x="129" y="55" width="250.28" height="250.28" rx="17.83"/><rect class="cls-3" x="125" y="51" width="250.28" height="250.28" rx="17.83"/><text class="cls-4" transform="translate(271.96 37.41)">i<tspan class="cls-5" x="6.62" y="0">n</tspan><tspan class="cls-6" x="20.88" y="0">v</tspan><tspan x="32.9" y="0">e</tspan><tspan class="cls-7" x="45.97" y="0">n</tspan><tspan class="cls-8" x="60.34" y="0">t</tspan><tspan x="69.23" y="0">o</tspan><tspan class="cls-9" x="83.02" y="0">r</tspan><tspan x="92.88" y="0">y</tspan></text><text class="cls-11" transform="translate(272.96 35.41)">i<tspan class="cls-5" x="6.62" y="0">n</tspan><tspan class="cls-6" x="20.88" y="0">v</tspan><tspan x="32.9" y="0">e</tspan><tspan class="cls-7" x="45.97" y="0">n</tspan><tspan class="cls-8" x="60.34" y="0">t</tspan><tspan x="69.23" y="0">o</tspan><tspan class="cls-9" x="83.02" y="0">r</tspan><tspan x="92.88" y="0">y</tspan></text></g></svg>