<svg xmlns="http://www.w3.org/2000/svg" viewBox="0 0 533 330"><defs><style>.cls-1{stroke:#fff;stroke-miterlimit:10;stroke-width:2.76px;}</style></defs><title>07_HAMMER</title><g id="Layer_5" data-name="Layer 5"><path class="cls-1" d="M277.57,152.44c-2.4,2.54-4.74,5.11-7.2,7.57q-35,35.06-70.08,70.08c-6.45,6.44-11.08,6.45-17.48,0l-9.58-9.57c-5.89-5.88-5.93-10.77-.1-16.62q36.5-36.6,73-73.18c4.5-4.52,4.87-6.71,1.66-12.23-5.27-9.08-12.83-16.16-20.92-22.59-5.12-4.07-10.92-7.27-16.25-11.1-1.25-.9-2.67-2.89-2.47-4.12s2.52-2.63,3.89-2.62c15.25.12,30.4,1.21,45.17,5.39a33.1,33.1,0,0,1,15.08,9c8.17,8.43,16.53,16.69,24.91,24.92,3.5,3.43,4.62,7.22,3,11.91-1.06,3,4.61,8.52,8.16,7.3,5.81-2,9.24.69,12.68,4.57,2.48,2.79,5.32,5.26,7.9,8,4.11,4.33,4.17,9.88,0,14.18q-9.18,9.43-18.62,18.6c-4.39,4.27-9.7,4.27-14.15.07-3.84-3.63-7.7-7.29-11.16-11.28-1.25-1.44-2.41-4.27-1.83-5.78C285.43,158.88,282,155.78,277.57,152.44Zm-27.93-14.86c3.69,3.54,7.17,6.8,10.56,10.15,6.19,6.13,6.18,6.17,12.45.26,2.09-2,4.32-3.3,7.29-2.27,5.14,1.78,11.58,10,10.53,15.25-1,4.93,1.42,7.32,4.32,10,1.89,1.76,3.72,3.59,5.49,5.46s3.65,2.12,5.61.15q8.87-8.93,17.79-17.79c1.87-1.86,1.68-3.56-.11-5.32-3.13-3.08-6.16-6.26-9.36-9.24a3.91,3.91,0,0,0-3-1c-8.94,2.29-13.61-3.81-18.27-9.46-.95-1.16-.83-4.22,0-5.65,1.68-2.76,1-4.39-1-6.36-8.64-8.5-17.18-17.11-25.8-25.63a17,17,0,0,0-4.24-3.32c-11.41-5.62-23.79-6.32-36.18-7a4.8,4.8,0,0,0,1.4,1.46c10.12,7.87,19.72,16.27,26.41,27.41,4.27,7.13,5.05,14.45-2,20.54A18.89,18.89,0,0,0,249.64,137.58Zm-4.9,4.53q-33.94,33.94-67.5,67.47c-1.86,1.86-1.76,3.49.08,5.28,3.5,3.43,6.92,6.95,10.39,10.41s4.14,3.55,7.77-.08l64-64c.71-.71,1.36-1.48,2-2.16Z"/><path class="cls-1" d="M249.64,137.58a18.89,18.89,0,0,1,1.85-2.36c7.07-6.09,6.29-13.41,2-20.54-6.69-11.14-16.29-19.54-26.41-27.41a4.8,4.8,0,0,1-1.4-1.46c12.39.72,24.77,1.42,36.18,7a17,17,0,0,1,4.24,3.32c8.62,8.52,17.16,17.13,25.8,25.63,2,2,2.72,3.6,1,6.36-.86,1.43-1,4.49,0,5.65,4.66,5.65,9.33,11.75,18.27,9.46a3.91,3.91,0,0,1,3,1c3.2,3,6.23,6.16,9.36,9.24,1.79,1.76,2,3.46.11,5.32q-8.93,8.86-17.79,17.79c-2,2-3.74,1.84-5.61-.15s-3.6-3.7-5.49-5.46c-2.9-2.72-5.32-5.11-4.32-10,1-5.21-5.39-13.47-10.53-15.25-3-1-5.2.3-7.29,2.27-6.27,5.91-6.26,5.87-12.45-.26C256.81,144.38,253.33,141.12,249.64,137.58Z"/><path class="cls-1" d="M244.74,142.11,261.53,159c-.64.68-1.29,1.45-2,2.16l-64,64c-3.63,3.63-4.2,3.63-7.77.08s-6.89-7-10.39-10.41c-1.84-1.79-1.94-3.42-.08-5.28Q210.9,176,244.74,142.11Z"/></g></svg>