<svg xmlns="http://www.w3.org/2000/svg" viewBox="0 0 1920 962"><defs><style>.cls-1{fill:#fff;opacity:0.55;}.cls-2,.cls-3{fill:none;stroke:#000;stroke-miterlimit:10;}.cls-2{stroke-width:1.42px;stroke-dasharray:8.16;}.cls-3{stroke-width:3.6px;}</style></defs><title>08_MINIGAME_FRAME</title><g id="Layer_5" data-name="Layer 5"><path class="cls-1" d="M1008.7,56.55H588.57A63,63,0,0,0,544,75l-31.47,31.48A63,63,0,0,0,494.11,151V850a63,63,0,0,0,63,63h835.29a63,63,0,0,0,63-63V255.37a63,63,0,0,0-18.44-44.54l-22.48-22.47A63,63,0,0,1,1396,143.82V119.54a63,63,0,0,0-63-63Z"/><path class="cls-2" d="M557.1,928a78.08,78.08,0,0,1-78-78V151A77.47,77.47,0,0,1,502,95.87L533.43,64.4a77.47,77.47,0,0,1,55.14-22.85H1333a78.08,78.08,0,0,1,78,78v24.28a47.69,47.69,0,0,0,14,33.93l22.48,22.48a77.46,77.46,0,0,1,22.84,55.14V850a78.07,78.07,0,0,1-78,78Z"/><path class="cls-3" d="M1008.7,56.55H588.57A63,63,0,0,0,544,75l-31.47,31.48A63,63,0,0,0,494.11,151V850a63,63,0,0,0,63,63h835.29a63,63,0,0,0,63-63V255.37a63,63,0,0,0-18.44-44.54l-22.48-22.47A63,63,0,0,1,1396,143.82V119.54a63,63,0,0,0-63-63Z"/></g></svg>