<svg xmlns="http://www.w3.org/2000/svg" viewBox="0 0 1920 962"><defs><style>.cls-1{fill:#fff;opacity:0.55;}.cls-2,.cls-3,.cls-4{fill:none;stroke:#231f20;stroke-miterlimit:10;}.cls-2{stroke-width:1.98px;}.cls-3,.cls-4{stroke-width:2.83px;}.cls-4{stroke-dasharray:28.35;}</style></defs><title>08_MINIGAME_FRAME_ALT</title><g id="Layer_6" data-name="Layer 6"><path class="cls-1" d="M227.15,909.25c-22.83,0-41.4-25.17-41.4-56.09l-.5-733.32c0-30.93,18.57-56.09,41.4-56.09H991.7c11.06,0,21.46,5.83,29.28,16.43l27.49,37.24c4,5.49,9.43,8.51,15.16,8.51h556.42c22.83,0,41.4,25.16,41.4,56.09l.5,597.66c0,30.92-18.57,56.09-41.4,56.09H809.61c-5.65,0-11.18,3.1-15.17,8.51l-35.83,48.54c-7.84,10.59-18.23,16.43-29.28,16.43Z"/><path class="cls-2" d="M227.15,919.25c-28.34,0-51.4-29.65-51.4-66.09l-.5-733.31c0-36.45,23.06-66.1,51.4-66.1H991.7c14.32,0,27.57,7.28,37.32,20.49l27.49,37.24c1.23,1.66,3.78,4.45,7.12,4.45h556.42c28.34,0,51.4,29.65,51.4,66.09l.5,597.65c0,36.45-23.06,66.1-51.4,66.1H809.61c-2.41,0-5.07,1.66-7.13,4.45l-35.83,48.54c-9.77,13.21-23,20.49-37.32,20.49Z"/><path class="cls-3" d="M227.15,909.25c-22.83,0-41.4-25.17-41.4-56.09l-.5-733.32c0-30.93,18.57-56.09,41.4-56.09H991.7c11.06,0,21.46,5.83,29.28,16.43l27.49,37.24c4,5.49,9.43,8.51,15.16,8.51h556.42c22.83,0,41.4,25.16,41.4,56.09l.5,597.66c0,30.92-18.57,56.09-41.4,56.09H809.61c-5.65,0-11.18,3.1-15.17,8.51l-35.83,48.54c-7.84,10.59-18.23,16.43-29.28,16.43Z"/><line class="cls-4" x1="813.25" y1="864.75" x2="1929.25" y2="864.75"/><line class="cls-4" x1="14.25" y1="33.75" x2="990.25" y2="33.75"/></g></svg>