<svg xmlns="http://www.w3.org/2000/svg" viewBox="0 0 492 253.52"><defs><style>.cls-1,.cls-2,.cls-3{fill:none;stroke:#231f20;stroke-miterlimit:10;}.cls-1{stroke-width:0.43px;}.cls-2{stroke-width:1.3px;}.cls-3{stroke-width:0.57px;stroke-dasharray:4.34;}</style></defs><title>11_TEXTBOX01_05</title><g id="Layer_1" data-name="Layer 1"><path class="cls-1" d="M80.86,187.64a9,9,0,0,1-9-9v-96a9,9,0,0,1,9-9H247.08a8.94,8.94,0,0,1,6.36,2.64l6,6a4.64,4.64,0,0,0,3.3,1.37H383.6a9,9,0,0,1,9,9v74.28a9,9,0,0,1-9,9H207.41a4.73,4.73,0,0,0-3.3,1.36L196.33,185a8.93,8.93,0,0,1-6.36,2.63Z"/><path class="cls-2" d="M106.67,75.78H247.08a6.84,6.84,0,0,1,4.83,2l6,6a6.79,6.79,0,0,0,4.83,2H383.6a6.83,6.83,0,0,1,6.83,6.83v74.28a6.83,6.83,0,0,1-6.83,6.83H207.41a6.84,6.84,0,0,0-4.83,2l-7.78,7.79a6.85,6.85,0,0,1-4.83,2H80.86A6.82,6.82,0,0,1,74,178.65v-96a6.82,6.82,0,0,1,6.82-6.83Z"/><line class="cls-3" x1="262.95" y1="80.95" x2="442.06" y2="80.95"/></g></svg>