<svg xmlns="http://www.w3.org/2000/svg" viewBox="0 0 244.44 351.05"><defs><style>.cls-1,.cls-2,.cls-3,.cls-4{fill:none;stroke:#231f20;stroke-miterlimit:10;}.cls-1{stroke-width:0.28px;}.cls-2{stroke-width:1.01px;}.cls-3,.cls-4{stroke-width:0.57px;}.cls-3{stroke-dasharray:3.36;}.cls-4{stroke-dasharray:4.34;}</style></defs><title>11_TEXTBOX02</title><g id="Layer_1" data-name="Layer 1"><path class="cls-1" d="M40.78,220.35c-5.1,0-9.1-2.8-9.1-6.37V114.22a5.75,5.75,0,0,1,3.1-4.84l6-3.59c.66-.39.9-.78.9-1V32.28c0-3.57,4-6.36,9.1-6.36H125c5.1,0,9.09,2.79,9.09,6.36V138c0,.17.24.56.9.95l7.79,4.68a5.75,5.75,0,0,1,3.1,4.84V214c0,3.57-4,6.37-9.1,6.37Z"/><path class="cls-2" d="M34,198.49V114.22a3.55,3.55,0,0,1,2-2.9l6-3.58a3.55,3.55,0,0,0,2-2.9V32.28c0-2.26,3.06-4.1,6.83-4.1H125c3.77,0,6.83,1.84,6.83,4.1V138a3.55,3.55,0,0,0,2,2.9l7.78,4.67a3.55,3.55,0,0,1,2,2.9V214c0,2.27-3,4.1-6.83,4.1h-96C37,218.08,34,216.25,34,214Z"/><line class="cls-3" x1="135.85" y1="21.53" x2="135.85" y2="135.69"/><line class="cls-3" x1="29.6" y1="120.63" x2="29.6" y2="228.13"/><line class="cls-4" x1="230.89" y1="305.33" x2="145.91" y2="220.35"/></g></svg>