<svg width="321" height="114" xmlns="http://www.w3.org/2000/svg">
 <title>11_TEXTBOX01_05</title>

 <g>
  <title>Layer 1</title>
  <g id="Layer_1" data-name="Layer 1">
   <path fill="#000a" class="cls-1" d="m9,114.00002a9,9 0 0 1 -9,-9l0,-96a9,9 0 0 1 9,-9l166.22,0a8.94,8.94 0 0 1 6.36,2.64l6,6a4.64,4.64 0 0 0 3.3,1.37l120.86,0a9,9 0 0 1 9,9l0,74.28a9,9 0 0 1 -9,9l-176.19,0a4.73,4.73 0 0 0 -3.3,1.36l-7.78,7.71a8.93,8.93 0 0 1 -6.36,2.63l-109.11,0.01z"  stroke="#ddd" stroke-miterlimit="10" stroke-width="0.43px" id="svg_1"/>
   <path fill="#000a" class="cls-2" d="m34.81,2.14002l140.41,0a6.84,6.84 0 0 1 4.83,2l6,6a6.79,6.79 0 0 0 4.83,2l120.86,0a6.83,6.83 0 0 1 6.83,6.83l0,74.28a6.83,6.83 0 0 1 -6.83,6.83l-176.19,0a6.84,6.84 0 0 0 -4.83,2l-7.78,7.79a6.85,6.85 0 0 1 -4.83,2l-109.11,0a6.82,6.82 0 0 1 -6.86,-6.86l0,-96a6.82,6.82 0 0 1 6.82,-6.83l25.85,-0.04z" stroke="#ddd" stroke-miterlimit="10" stroke-width="1.3px" id="svg_2"/>
  </g>
 </g>
</svg>